<svg width="61" height="49" viewBox="0 0 61 49" fill="none" xmlns="http://www.w3.org/2000/svg">
<path d="M1.4508 48.2322C3.12083 48.6348 4.85322 48.7098 6.55185 48.4531C6.98639 48.3939 7.4014 48.2354 7.76467 47.99C11.8027 45.2539 38.8132 26.8068 50.7988 15.3781C51.0174 15.1647 51.157 14.8835 51.1945 14.5806C51.2321 14.2777 51.1656 13.971 51.0057 13.7108C50.8126 13.3966 50.6005 13.0944 50.3708 12.8059C50.1771 12.5558 49.9007 12.3827 49.5909 12.3174C49.2812 12.2521 48.9583 12.299 48.6799 12.4496C43.0866 15.6488 14.5209 32.0652 3.44128 40.309C3.44128 40.309 2.0929 41.2994 0.18804 45.5247C0.0653578 45.7823 0.00115118 46.0639 1.5339e-05 46.3492C-0.0011205 46.6345 0.060838 46.9166 0.181465 47.1752C0.302091 47.4339 0.478413 47.6627 0.697836 47.8454C0.917258 48.0281 1.17436 48.1602 1.4508 48.2322Z" fill="#CACEEA"/>
<path d="M16.8325 31.4096V1.32004C16.8354 1.2007 16.8683 1.084 16.9282 0.980672C16.988 0.877339 17.0729 0.790681 17.175 0.728645L18.3379 0.0731304C18.4292 0.0282382 18.5291 0.00337858 18.6308 0.000221733C18.7325 -0.00293512 18.8337 0.015678 18.9277 0.0548217C19.0216 0.0939653 19.1061 0.152731 19.1754 0.227167C19.2447 0.301603 19.2972 0.389992 19.3295 0.486392L26.2926 25.4245L16.8325 31.4096Z" fill="#CACEEA"/>
<path d="M21.4995 38.3208L49.7514 48.7734C49.8632 48.8159 49.9843 48.8277 50.1022 48.8076C50.2202 48.7876 50.3306 48.7364 50.422 48.6594L51.4422 47.7972C51.516 47.7279 51.5741 47.6436 51.6127 47.5501C51.6513 47.4566 51.6695 47.3559 51.6661 47.2548C51.6627 47.1537 51.6378 47.0545 51.5931 46.9637C51.5483 46.873 51.4848 46.7928 51.4065 46.7285L30.4388 31.5162L21.4995 38.3208Z" fill="#CACEEA"/>
<path d="M48.6794 12.4852L47.8447 2.02542C47.8284 1.78915 47.7228 1.5679 47.5493 1.40649C47.3757 1.24509 47.1472 1.15559 46.9101 1.15615H45.9755C45.7643 1.15465 45.5588 1.2241 45.3919 1.35332C45.225 1.48254 45.1064 1.66404 45.0552 1.86867L41.6165 16.5394L48.6794 12.4852Z" fill="#CACEEA"/>
<path d="M50.1061 15.9342L59.766 20.0597C59.9843 20.153 60.1593 20.3252 60.2558 20.5419C60.3524 20.7586 60.3635 21.0037 60.2867 21.2282L59.9871 22.1117C59.9188 22.3129 59.7844 22.4852 59.6056 22.6003C59.4268 22.7155 59.2143 22.7668 59.0026 22.7459L43.9849 21.3208L50.1061 15.9342Z" fill="#CACEEA"/>
<path d="M17.3535 20.1949L11.4463 24.4059C11.0708 24.6755 10.8143 25.0798 10.7306 25.534C10.6468 25.9882 10.7422 26.4572 10.9968 26.8427C11.2448 27.2108 11.6214 27.4733 12.0528 27.5787C12.4843 27.6841 12.9397 27.6249 13.3298 27.4127L18.3595 24.6838L17.3535 20.1949Z" fill="#CACEEA"/>
<path d="M31.9207 42.3747L25.935 46.4788C25.5543 46.7403 25.0867 46.8435 24.6311 46.7663C24.1756 46.6892 23.7681 46.4378 23.4951 46.0655C23.2327 45.7084 23.1136 45.2662 23.1611 44.8259C23.2086 44.3855 23.4194 43.9788 23.7519 43.6857L28.0325 39.8951L31.9207 42.3747Z" fill="#CACEEA"/>
</svg>
