<svg width="414" height="432" viewBox="0 0 414 432" fill="none" xmlns="http://www.w3.org/2000/svg">
<path d="M245.48 206.071H169.49C169.49 206.071 168.329 232.555 155.708 249.306H259.23C246.588 232.586 245.48 206.071 245.48 206.071Z" fill="#FFAB8C"/>
<path d="M245.481 206.071H169.491C169.154 211.268 168.416 216.432 167.285 221.516C171.122 214.122 179.697 217.464 184.706 223.668C190.792 231.208 197.327 241.014 207.46 241.014C217.592 241.014 224.128 231.208 230.214 223.668C235.212 217.464 243.808 214.122 247.624 221.516C246.516 216.43 245.8 211.266 245.481 206.071Z" fill="#FD7C7B"/>
<path d="M127.214 146.98C127.214 146.98 91.1591 151.367 69.409 155.085C47.6588 158.802 10.1294 166.802 -7.16618 169.946C-24.4617 173.089 -46.2642 176.514 -52.5382 177.945C-58.8123 179.376 -76.0033 185.663 -86 185.663V162.207C-86 162.207 -70.984 162.468 -69.3946 159.628C-67.3032 155.92 -82.6015 152.014 -79.705 143.628C-76.317 146.135 -73.1068 149.268 -66.1112 152.484C-59.1156 155.701 -56.6164 159.345 -51.2939 160.494C-45.9714 161.643 1.25156 144.203 13.8415 137.905C26.4315 131.608 36.4492 132.589 51.9043 129.822C67.3595 127.054 106.855 112.883 106.855 112.883L127.214 146.98Z" fill="#FFAB8C"/>
<path d="M35.3498 153.935C26.9843 156.797 -25.8957 173.099 -38.2661 175.323C-29.0641 173.736 -17.3525 171.793 -7.16759 169.945C10.128 166.812 47.6574 158.791 69.4076 155.084C91.1577 151.376 127.213 146.98 127.213 146.98L106.895 112.903C106.895 112.903 102.587 114.449 96.2606 116.621C97.6618 120.589 100.956 130.291 101.552 135.074C101.552 135.074 88.5749 146.123 63.008 149.288C46.068 151.376 43.7361 151.074 35.3498 153.935Z" fill="#FD7C7B"/>
<path d="M22.3845 151.244C22.3845 151.244 30.5095 146.889 34.5667 146.126C37.5625 145.691 40.6056 145.691 43.6014 146.126C43.6014 146.126 40.3284 149.541 36.5326 149.938C32.7367 150.335 25.3961 149.802 22.3845 151.244Z" fill="#FD7C7B"/>
<path d="M287.695 146.98C287.695 146.98 323.76 151.367 345.51 155.085C367.26 158.802 404.79 166.802 422.085 169.946C439.381 173.089 461.131 176.514 467.426 177.945C473.721 179.376 490.902 185.663 500.888 185.663V162.207C500.888 162.207 485.872 162.468 484.272 159.628C482.181 155.92 497.489 152.014 494.593 143.628C491.205 146.135 487.984 149.268 480.999 152.484C474.014 155.701 471.504 159.345 466.182 160.494C460.859 161.643 413.636 144.203 401.046 137.905C388.456 131.608 378.439 132.589 362.984 129.822C347.528 127.054 308.033 112.883 308.033 112.883L287.695 146.98Z" fill="#FFAB8C"/>
<path d="M379.568 153.935C387.933 156.797 440.803 173.099 453.173 175.323C443.971 173.736 432.26 171.793 422.085 169.945C404.79 166.812 367.26 158.791 345.51 155.084C323.76 151.376 287.695 146.98 287.695 146.98L308.023 112.903C308.023 112.903 312.32 114.449 318.647 116.621C317.256 120.589 313.962 130.291 313.356 135.074C313.356 135.074 326.332 146.123 351.899 149.288C368.871 151.376 371.171 151.074 379.568 153.935Z" fill="#FD7C7B"/>
<path d="M392.523 151.244C392.523 151.244 384.409 146.889 380.351 146.126C377.356 145.691 374.312 145.691 371.317 146.126C371.317 146.126 374.59 149.541 378.385 149.938C382.181 150.335 389.511 149.802 392.523 151.244Z" fill="#FD7C7B"/>
<path d="M275.198 97.8349C263.648 93.8179 251.769 90.8128 239.697 88.8536L207.459 81.2717L175.21 88.8536C175.21 88.8536 163.363 91.0989 143.84 97.8349C132.797 101.657 98.1436 110.315 98.1436 110.315L124.84 153.655C124.84 153.655 130.068 153.404 137.743 152.611C142.297 152.095 146.887 153.191 150.715 155.708C154.542 158.225 157.364 162.004 158.688 166.385C162.944 180.693 168.1 200.932 166.332 211.083C166.332 211.083 180.052 214.112 207.48 214.112C234.908 214.112 248.617 211.083 248.617 211.083C246.965 201.287 251.66 182.103 255.822 167.91C257.232 163.125 260.276 158.985 264.426 156.209C268.575 153.433 273.567 152.197 278.534 152.715C285.435 153.425 290.036 153.644 290.036 153.644L316.722 110.304C316.722 110.304 286.261 101.636 275.198 97.8349Z" fill="#067EC1"/>
<path d="M305.083 345.886C286.02 295.381 272.322 266.265 261.604 249.879C260.811 248.701 259.738 247.738 258.48 247.076C257.223 246.415 255.82 246.075 254.399 246.088H160.549C159.128 246.074 157.725 246.414 156.468 247.075C155.21 247.737 154.137 248.701 153.345 249.879C142.626 266.265 128.918 295.381 109.865 345.886C94.2428 387.283 66.2917 432.691 66.2917 432.691H348.625C348.625 432.691 320.664 387.283 305.083 345.886Z" fill="#FEC242"/>
<path d="M163.991 246.099L104.962 432.692" stroke="#E2E8A1" stroke-width="1.10938" stroke-miterlimit="10"/>
<path d="M178.484 246.099L139.125 432.692" stroke="#E2E8A1" stroke-width="1.10938" stroke-miterlimit="10"/>
<path d="M192.966 246.099L173.287 432.692" stroke="#E2E8A1" stroke-width="1.10938" stroke-miterlimit="10"/>
<path d="M207.449 246.099V432.692" stroke="#E2E8A1" stroke-width="1.10938" stroke-miterlimit="10"/>
<path d="M221.942 246.099L241.611 432.692" stroke="#E2E8A1" stroke-width="1.10938" stroke-miterlimit="10"/>
<path d="M236.425 246.099L275.774 432.692" stroke="#E2E8A1" stroke-width="1.10938" stroke-miterlimit="10"/>
<path d="M250.917 246.099L309.946 432.692" stroke="#E2E8A1" stroke-width="1.10938" stroke-miterlimit="10"/>
<path d="M166.971 73.9093C173.674 87.6528 173.914 99.9134 166.971 109.417C160.027 118.92 157.643 125.656 158.281 128.789C159.588 126.189 164.367 117.949 167.18 117.082C163.279 130.742 163.53 136.162 172.084 144.392C180.638 152.621 181.934 161.3 177.386 167.367C172.837 173.435 172.827 182.97 183.022 189.476C179.55 183.398 178.034 174.082 186.713 166.501C184.977 177.33 183.89 185.789 187.581 191.418C191.272 197.047 206.456 202.207 209.927 209.36C210.949 211.375 211.481 213.602 211.481 215.861C211.481 218.12 210.949 220.347 209.927 222.362C209.927 222.362 218.47 218.571 226.961 207.742C236.435 195.679 226.543 183.889 233.633 180.328C231.782 188.682 236.184 192.411 234.679 198.081C241.193 189.194 238.861 183.868 243.86 179.346C252.225 171.848 256.115 165.769 254.818 157.624C252.8 144.778 244.006 147.588 245.48 136.1C247.645 141.729 253.992 144.11 256.355 149.969C257.202 145.721 256.418 141.311 254.16 137.614C251.336 132.841 239.834 123.087 239.185 112.686C243.305 115.077 246.997 116.811 246.997 116.811C246.997 116.811 231.196 95.3705 236.404 76.2904L166.971 73.9093Z" fill="#242424"/>
<path d="M166.971 73.9093C169.861 79.5006 171.589 85.6175 172.053 91.8928C172.123 93.9831 172.667 96.0302 173.643 97.8805C174.62 99.7308 176.003 101.336 177.689 102.576C188.365 110.179 202.932 114.858 219.004 114.858C222.012 114.861 225.018 114.694 228.007 114.357C229.756 114.167 231.44 113.591 232.937 112.668C234.434 111.745 235.705 110.5 236.658 109.024C237.611 107.547 238.222 105.877 238.446 104.134C238.67 102.392 238.501 100.621 237.951 98.9526C235.63 92.0495 234.302 83.9767 236.404 76.2904L166.971 73.9093Z" fill="#161616"/>
<path d="M197.881 89.9393C239.526 89.9393 273.285 70.5353 273.285 46.5992C273.285 22.6631 239.526 3.25909 197.881 3.25909C156.237 3.25909 122.477 22.6631 122.477 46.5992C122.477 70.5353 156.237 89.9393 197.881 89.9393Z" fill="#0863A8"/>
<path d="M270.242 58.8176L232.828 26.8922L163.457 41.5129C163.457 41.5129 216.578 85.793 238.568 78.2737C243.856 76.4044 249.377 75.2796 254.975 74.9318C261.919 70.3054 267.178 64.8122 270.242 58.8176Z" fill="#004F8A"/>
<path d="M197.89 -0.00012207C188.309 -0.00012207 179.119 3.80138 172.344 10.5681C165.569 17.3347 161.762 26.5123 161.762 36.0818C161.775 37.5782 162.138 39.0508 162.822 40.3819C163.507 41.713 164.494 42.8655 165.704 43.7473C174.07 49.9298 185.405 53.7208 197.89 53.7208C210.376 53.7208 221.701 49.9298 230.066 43.7473C231.278 42.8661 232.266 41.7139 232.953 40.3829C233.639 39.0518 234.004 37.5789 234.019 36.0818C234.019 26.5123 230.212 17.3347 223.437 10.5681C216.662 3.80138 207.472 -0.00012207 197.89 -0.00012207Z" fill="#035FA4"/>
<path d="M199.585 5.4212C206.789 5.42122 213.829 7.57182 219.801 11.5969C225.773 15.6219 230.403 21.3376 233.099 28.0103C231.109 19.3732 226.005 11.7697 218.762 6.64978C211.518 1.52983 202.641 -0.748457 193.823 0.249405C185.005 1.24727 176.864 5.45144 170.951 12.0603C165.038 18.6691 161.767 27.2202 161.762 36.083C161.769 37.996 162.36 39.8614 163.456 41.43C163.476 31.8732 167.291 22.7144 174.064 15.9635C180.837 9.21262 190.016 5.42118 199.585 5.4212Z" fill="#408EC9"/>
</svg>
