<svg width="414" height="565" viewBox="0 0 414 565" fill="none" xmlns="http://www.w3.org/2000/svg">
<path d="M505.551 44.0791V591H-117.667V48.3114C-117.667 48.3114 -107.065 26.7791 -92.5899 12.6856C-81.7101 2.06906 -68.6472 -4.3507 -56.2477 5.68867C-27.6534 28.8526 -55.6556 85.6046 -56.2477 86.7802C-55.6056 85.9181 -32.4334 54.5744 -12.386 78.0091C7.82552 101.622 -28.1885 180.099 -28.6237 181.06C-28.1599 180.604 -5.6726 158.63 10.6792 181.908C26.8242 204.88 3.7233 248.073 2.63888 250.082C3.73756 248.479 23.2285 220.641 43.2616 241.061C52.4292 250.403 54.969 263.349 54.969 274.842C54.8924 283.771 53.562 292.645 51.0166 301.205C52.8663 296.167 55.2257 291.33 58.0582 286.769C64.9285 275.647 76.9498 262.729 94.6572 266.049C124.6 271.693 127.546 316.581 127.546 316.581C127.546 316.581 132.59 268.928 169.254 272.12C205.917 275.312 211.189 325.131 211.189 325.131C211.189 325.131 210.618 268.365 242.958 269.847C273.443 271.272 284.38 313.752 285.543 318.626C284.458 313.368 275.162 263.762 306.011 244.774C330.667 229.569 354.425 251.699 364.548 263.392C354.132 249.412 332.729 216.18 349.316 197.933C370.391 174.776 407.033 205.535 408.146 206.483C406.826 205.022 353.925 146.218 381.421 112.431C408.916 78.6432 451.872 135.345 453.092 136.977C451.901 134.79 399.021 37.36 441.342 14.1106C448.869 9.97088 455.739 8.22521 461.946 8.14684C491.018 7.76208 505.551 44.0791 505.551 44.0791Z" fill="#00A197"/>
<path d="M505.551 187.509V591H-117.667V190.63C-117.667 190.63 -85.1417 141.901 -56.2477 159.172C-27.5821 176.272 -55.7911 218.311 -56.2477 219.023C-55.7198 218.489 -32.4762 195.211 -12.386 212.54C7.81125 229.953 -28.1528 287.803 -28.6237 288.565C-28.1599 288.23 -5.6726 272.013 10.6792 289.192C26.8955 306.214 3.54494 338.285 2.62461 339.503C3.52353 338.527 23.1215 317.686 43.2902 332.827C62.9951 347.64 52.0868 374.751 51.088 377.124C52.2437 374.715 66.0058 347.319 94.6572 351.281C124.621 355.428 127.568 388.545 127.568 388.545C127.568 388.545 132.612 353.39 169.275 355.77C205.938 358.15 211.21 394.88 211.21 394.88C211.21 394.88 210.64 352.998 242.98 354.095C273.3 355.121 284.287 386.159 285.543 390.02C284.387 385.817 275.348 349.557 306.033 335.598C330.689 324.383 354.439 340.7 364.534 349.329C354.132 338.983 332.729 314.444 349.316 301.013C370.391 283.912 407.033 306.62 408.146 307.311C406.826 306.236 353.925 262.85 381.421 237.934C408.916 213.017 452.05 255.034 453.092 256.046C452.029 254.621 398.971 182.571 441.342 165.399C484.148 148.05 505.551 187.509 505.551 187.509Z" fill="#44B69E"/>
<g opacity="0.19">
<path opacity="0.19" d="M382.09 359.809C380.754 362.264 380.085 365.025 380.15 367.818C380.15 370.354 380.571 372.991 382.055 375.05C383.767 377.423 386.671 378.705 389.574 379.133C391.785 379.473 394.043 379.341 396.199 378.745C398.355 378.15 400.359 377.104 402.081 375.677C403.779 374.221 405.085 372.363 405.88 370.274C406.676 368.184 406.934 365.929 406.632 363.714C406.272 361.506 405.284 359.449 403.785 357.788C402.286 356.126 400.339 354.931 398.178 354.344C392.885 353.083 384.958 354.893 382.09 359.809Z" fill="#00684E"/>
<path opacity="0.19" d="M86.8018 381.491C85.4815 382.319 84.353 383.418 83.4918 384.715C82.6307 386.013 82.0565 387.479 81.8078 389.016C81.6666 390.664 81.9226 392.323 82.5543 393.852C83.1861 395.382 84.1752 396.738 85.4391 397.808C88.0009 399.936 91.2245 401.108 94.5568 401.121C98.5235 401.214 102.697 399.81 105.166 396.696C107.934 393.205 108.019 387.925 105.608 384.17C101.349 377.558 92.8731 377.466 86.8018 381.491Z" fill="#00684E"/>
<path opacity="0.19" d="M90.8759 434.004C90.2183 434.419 89.6569 434.969 89.2288 435.618C88.8007 436.267 88.5158 436.999 88.3931 437.766C88.3195 438.589 88.4443 439.418 88.7571 440.182C89.0699 440.947 89.5616 441.626 90.191 442.162C91.4721 443.226 93.0835 443.813 94.7498 443.822C95.7445 443.882 96.7396 443.714 97.6595 443.331C98.5793 442.948 99.3995 442.361 100.058 441.614C100.723 440.714 101.1 439.634 101.14 438.516C101.179 437.399 100.879 436.295 100.279 435.351C98.1315 432.009 93.8865 432.009 90.8759 434.004Z" fill="#00684E"/>
<path opacity="0.19" d="M335.504 376.766C334.846 377.179 334.285 377.728 333.857 378.376C333.429 379.023 333.144 379.754 333.021 380.521C332.947 381.345 333.072 382.174 333.385 382.94C333.697 383.706 334.189 384.386 334.819 384.924C336.1 385.988 337.711 386.575 339.377 386.584C340.373 386.642 341.368 386.473 342.288 386.089C343.208 385.705 344.028 385.116 344.685 384.368C345.351 383.468 345.728 382.389 345.767 381.271C345.807 380.153 345.507 379.049 344.907 378.105C342.781 374.799 338.536 374.749 335.504 376.766Z" fill="#00684E"/>
<path opacity="0.19" d="M368.4 402.24C361.687 408.496 355.195 416.141 354.681 425.297C354.51 428.318 355.088 431.51 356.986 433.847C359.54 436.997 363.927 438.023 367.987 438.023C375.401 438.041 382.544 435.238 387.963 430.185C390.622 427.646 392.73 424.588 394.157 421.202C395.584 417.815 396.3 414.172 396.26 410.498C396.174 406.636 395.133 402.66 392.693 399.682C386.001 391.46 374.714 396.383 368.4 402.24Z" fill="#00684E"/>
<path opacity="0.19" d="M294.981 416.746C290.929 414.409 286.234 412.378 281.69 413.49C280.159 413.786 278.792 414.636 277.851 415.877C276.689 417.587 276.838 419.874 277.438 421.855C278.536 425.465 280.969 428.523 284.244 430.405C285.877 431.323 287.681 431.896 289.545 432.09C291.409 432.283 293.293 432.093 295.081 431.531C296.991 430.968 298.661 429.791 299.832 428.182C302.843 423.714 298.784 418.941 294.981 416.746Z" fill="#00684E"/>
<path opacity="0.19" d="M183.899 423.651C179.483 425.183 174.874 427.406 172.748 431.567C171.97 432.919 171.716 434.509 172.035 436.035C172.577 438.03 174.411 439.412 176.315 440.246C179.77 441.781 183.681 441.944 187.252 440.702C189.016 440.066 190.631 439.075 191.995 437.791C193.36 436.506 194.446 434.955 195.186 433.234C196.007 431.423 196.208 429.392 195.756 427.456C194.322 422.247 188.051 422.205 183.899 423.651Z" fill="#00684E"/>
</g>
<g opacity="0.36">
<path opacity="0.36" d="M43.2678 241.053C52.4354 250.394 54.9752 263.341 54.9752 274.834C51.194 263.626 44.8017 254.206 33.8434 250.302C19.0468 245.022 2.93758 252.945 -9.93272 261.937C-11.167 248.321 -3.36916 235.752 0.768745 222.749C4.90665 209.745 3.28002 192.061 -9.41192 186.923C-20.1134 182.613 -31.6282 189.816 -40.8671 196.671C-35.1263 169.258 -30.6888 141.645 -27.5545 113.833C-26.9266 108.233 -26.363 102.433 -28.1751 97.075C-29.9873 91.7169 -34.86 87.0071 -40.5032 87.2138C-43.6851 87.3349 -46.5959 88.9452 -49.3355 90.5626C-57.4972 95.3697 -65.4067 100.578 -73.0642 106.188C-71.4376 85.689 -55.5281 67.7122 -56.6553 47.1917C-57.4686 31.6374 -69.3615 17.323 -84.5148 13.625C-87.1597 12.9891 -89.8703 12.6662 -92.5908 12.6631C-81.711 2.0466 -68.6481 -4.37316 -56.2487 5.66621C-27.6543 28.8301 -55.6565 85.5821 -56.2487 86.7578C-55.6066 85.8956 -32.4343 54.552 -12.3869 77.9867C7.82458 101.599 -28.1894 180.076 -28.6246 181.038C-28.1609 180.582 -5.67354 158.608 10.6783 181.886C26.8232 204.857 3.72236 248.05 2.63794 250.06C3.74376 248.456 23.2347 220.618 43.2678 241.053Z" fill="#C5DB96"/>
<path opacity="0.36" d="M432.845 62.9244C434.628 83.7371 444.331 102.904 453.092 121.878C457.265 130.934 455.061 142.684 451.073 152.36C439.855 138.52 425.7 127.34 409.63 119.627C403.323 116.613 395.361 114.29 389.725 118.408C384.431 122.263 383.853 129.851 384.296 136.378C386.444 166.302 399.564 194.384 421.144 215.253C411.085 216.792 401.361 211.741 391.894 207.964C382.426 204.188 370.876 201.823 362.707 207.893C353.518 214.712 353.554 228.663 357.449 239.415C361.159 249.661 367.53 259.052 369.535 269.711C369.63 270.219 369.715 270.732 369.792 271.25C353.326 258.261 331.68 244.595 312.924 254.007C295.01 262.999 292.234 286.947 291.821 306.976C291.614 316.73 290.187 325.743 289.98 335.476L260.016 309.698C255.086 305.458 249.75 301.041 243.293 300.278C235.395 299.352 227.747 304.368 223.267 310.93C218.787 317.493 216.846 325.401 214.991 333.125C208.042 321.105 200.723 308.8 189.672 300.406C178.621 292.013 162.725 288.386 150.654 295.276C138.583 302.166 133.789 316.923 130.029 330.332L107.912 300.592C102.49 293.31 95.9054 285.358 86.8377 284.76C74.4668 283.99 65.6559 293.452 60.1982 304.582C59.821 298.609 59.1064 292.661 58.0579 286.769C64.9282 275.646 76.9495 262.728 94.6569 266.049C124.6 271.692 127.546 316.581 127.546 316.581C127.546 316.581 132.59 268.927 169.253 272.119C205.916 275.312 211.189 325.131 211.189 325.131C211.189 325.131 210.618 268.364 242.958 269.846C273.443 271.272 284.38 313.752 285.542 318.625C284.458 313.367 275.162 263.762 306.011 244.773C330.667 229.568 354.424 251.699 364.548 263.391C354.132 249.412 332.729 216.18 349.316 197.932C370.391 174.775 407.033 205.535 408.146 206.482C406.826 205.022 353.925 146.218 381.42 112.43C408.916 78.6425 451.872 135.345 453.092 136.976C451.9 134.789 399.021 37.3593 441.342 14.1099C448.868 9.97016 455.739 8.2245 461.945 8.14612C460.67 8.60308 459.42 9.12631 458.2 9.71366C439.365 18.7983 431.061 42.0904 432.845 62.9244Z" fill="#C5DB96"/>
</g>
<path d="M372.002 362.275L371.967 362.182C372.395 362.297 372.831 362.404 373.266 362.504L372.002 362.275Z" fill="#C5DB96"/>
<path d="M382.17 363.986C379.162 363.708 376.178 363.205 373.245 362.481L382.17 363.986Z" fill="#C5DB96"/>
<path opacity="0.32" d="M505.55 187.509V200.441L487.308 188.221C477.891 181.916 466.89 175.311 455.917 178.21C438.345 182.856 435.634 207.488 442.433 224.317C449.232 241.147 461.86 256.402 462.288 274.543C447.32 263.917 431.394 254.707 414.716 247.032C409.451 244.61 403.466 242.309 398.015 244.282C391.252 246.74 388.241 255.127 389.497 262.202C390.752 269.277 395.204 275.319 399.485 281.077L426.495 317.208C409.522 310.264 391.251 307.052 372.924 307.789C369.192 307.946 365.019 308.501 362.714 311.43C360.053 314.821 361.138 319.716 362.472 323.813C365.732 333.853 365.561 343.237 368.072 352.478C368.085 352.551 368.104 352.622 368.129 352.692C369.013 356.001 370.302 359.189 371.968 362.182C363.72 360.045 355.716 356.724 347.497 354.387C335.925 351.103 322.598 350.112 312.674 356.888C298.013 366.935 297.792 388.082 299.119 405.788C294.839 400.387 290.515 394.915 285.564 390.113C282.357 386.946 278.792 384.163 274.941 381.819C265.124 375.984 252.111 374.117 242.43 380.188C230.059 387.954 227.755 404.684 226.699 419.241C218.623 405.56 210.183 391.453 197.291 382.19C184.399 372.927 165.743 369.628 152.737 378.763C142.378 386.03 137.284 392.393 126.49 398.991C127.267 400.296 127.671 401.789 127.659 403.308C127.646 404.827 127.217 406.313 126.419 407.605C122.138 392.999 116.36 376.661 102.412 370.554C90.3906 365.275 75.8581 369.842 65.8986 378.392C55.9391 386.942 49.5824 398.827 43.4469 410.455C44.7233 393.832 44.1251 377.119 41.6633 360.629C41.0212 356.354 40.1865 351.894 37.6182 348.388C32.8168 341.833 23.1212 340.55 15.4447 343.244C7.76821 345.937 1.63271 351.68 -4.2531 357.28C2.25636 344.358 5.66146 330.099 5.69213 315.634C5.69213 310.19 5.11424 304.447 1.98228 299.958C-2.47666 293.624 -11.2019 291.479 -18.857 292.733C-26.5121 293.987 -33.3825 298.02 -40.0459 301.996C-28.8595 281.463 -22.3983 258.696 -21.1329 235.354C-20.8546 230.117 -20.9902 224.396 -24.272 220.299C-29.6869 213.551 -40.5667 214.919 -48.0364 219.287C-55.506 223.655 -61.7128 230.324 -69.9101 233.103C-64.3831 218.869 -60.8539 203.941 -59.4227 188.741C-58.7806 181.866 -59.2087 173.629 -65.0303 169.91C-70.8519 166.19 -78.614 169.304 -84.6282 172.788C-96.3787 179.578 -107.435 187.501 -117.639 196.444V190.63C-117.639 190.63 -85.1134 141.901 -56.2194 159.172C-27.5538 176.272 -55.7628 218.311 -56.2194 219.023C-55.6915 218.489 -32.4479 195.211 -12.3577 212.54C7.83955 229.953 -28.1245 287.803 -28.5954 288.565C-28.1316 288.23 -5.64429 272.013 10.7076 289.192C26.9238 306.214 3.57323 338.285 2.65291 339.503C3.55183 338.527 23.1498 317.686 43.3185 332.827C63.0234 347.64 52.1151 374.751 51.1163 377.124C52.272 374.715 66.0341 347.319 94.6855 351.281C124.65 355.428 127.596 388.545 127.596 388.545C127.596 388.545 132.64 353.39 169.303 355.77C205.966 358.149 211.239 394.88 211.239 394.88C211.239 394.88 210.668 352.998 243.008 354.095C273.329 355.121 284.315 386.159 285.571 390.02C284.415 385.817 275.376 349.557 306.061 335.598C330.717 324.383 354.467 340.7 364.562 349.329C354.132 338.983 332.729 314.444 349.316 301.013C370.391 283.912 407.033 306.62 408.146 307.311C406.826 306.235 353.925 262.85 381.421 237.934C408.916 213.017 452.05 255.034 453.092 256.046C452.029 254.621 398.971 182.571 441.342 165.399C484.147 148.05 505.55 187.509 505.55 187.509Z" fill="#C5DB96"/>
<g opacity="0.36">
<g opacity="0.51">
<path opacity="0.51" d="M15.3283 275.78C18.2287 274.108 18.3393 268.876 15.5753 264.095C12.8113 259.314 8.2193 256.793 5.31886 258.466C2.41841 260.138 2.30784 265.37 5.07187 270.151C7.8359 274.933 12.4278 277.453 15.3283 275.78Z" fill="#00684E"/>
<path opacity="0.51" d="M46.9698 285.31C50.5978 282.632 50.7005 276.626 47.1991 271.895C43.6978 267.164 37.9183 265.5 34.2903 268.178C30.6623 270.856 30.5596 276.863 34.061 281.594C37.5623 286.325 43.3418 287.989 46.9698 285.31Z" fill="#00684E"/>
<path opacity="0.51" d="M31.6674 316.561C34.6974 316.561 37.1537 314.108 37.1537 311.082C37.1537 308.056 34.6974 305.603 31.6674 305.603C28.6374 305.603 26.1812 308.056 26.1812 311.082C26.1812 314.108 28.6374 316.561 31.6674 316.561Z" fill="#00684E"/>
<path opacity="0.51" d="M87.4721 329.222C93.9261 329.222 99.1581 323.997 99.1581 317.551C99.1581 311.105 93.9261 305.88 87.4721 305.88C81.0181 305.88 75.7861 311.105 75.7861 317.551C75.7861 323.997 81.0181 329.222 87.4721 329.222Z" fill="#00684E"/>
<path opacity="0.51" d="M184.099 322.951C187.382 322.951 190.042 320.294 190.042 317.016C190.042 313.738 187.382 311.081 184.099 311.081C180.817 311.081 178.156 313.738 178.156 317.016C178.156 320.294 180.817 322.951 184.099 322.951Z" fill="#00684E"/>
<path opacity="0.51" d="M314.08 300.53C318.173 300.53 321.492 295.196 321.492 288.616C321.492 282.037 318.173 276.703 314.08 276.703C309.986 276.703 306.667 282.037 306.667 288.616C306.667 295.196 309.986 300.53 314.08 300.53Z" fill="#00684E"/>
<path opacity="0.51" d="M339.377 274.821C344.866 274.821 349.315 272.295 349.315 269.178C349.315 266.061 344.866 263.535 339.377 263.535C333.888 263.535 329.439 266.061 329.439 269.178C329.439 272.295 333.888 274.821 339.377 274.821Z" fill="#00684E"/>
<path opacity="0.51" d="M373.644 223.599C377.592 223.599 380.793 221.902 380.793 219.809C380.793 217.715 377.592 216.018 373.644 216.018C369.696 216.018 366.495 217.715 366.495 219.809C366.495 221.902 369.696 223.599 373.644 223.599Z" fill="#00684E"/>
<path opacity="0.51" d="M414.566 132.66C417.419 134.306 417.933 138.788 415.693 142.635C413.453 146.483 409.315 148.335 406.454 146.668C403.593 145.001 403.094 140.54 405.334 136.693C407.574 132.845 411.712 131.007 414.566 132.66Z" fill="#00684E"/>
<path opacity="0.51" d="M407.096 186.319C411.234 186.319 414.588 181.024 414.588 174.492C414.588 167.959 411.234 162.664 407.096 162.664C402.959 162.664 399.605 167.959 399.605 174.492C399.605 181.024 402.959 186.319 407.096 186.319Z" fill="#00684E"/>
</g>
</g>
<path d="M505.55 493.399H-117.325V590.999H505.55V493.399Z" fill="#009B89"/>
<path d="M503.189 434.858V590.999H-117.667V410.925C-111.703 410.419 -105.596 411.922 -99.4531 416.126C-87.6458 424.206 -81.282 437.943 -75.5603 451.039C-59.4368 444.89 -39.1254 456.825 -36.6854 473.89C-25.3633 461.321 -1.7844 463.822 6.64122 478.485C14.0038 471.09 23.3212 463.067 33.5233 465.304C38.3818 466.366 42.4483 469.665 47.157 471.268C51.8656 472.871 58.3222 471.845 59.8917 467.135L74.5599 480.096C81.7584 468.909 101.256 469.408 107.849 480.979C117.837 469.8 137.57 469.408 148.022 480.188C157.247 468.788 178.471 471.51 184.514 484.863C194.216 477.025 209.092 476.455 219.379 483.48L257.812 476.783C268.064 475.001 280.477 473.968 287.012 482.055C288.439 471.802 302.23 465.211 321.257 471.945C331.024 475.393 328.805 479.932 335.797 487.57C338.708 479.419 356.101 468.332 364.27 465.425C387.571 457.181 390.339 475.578 405.556 470.541C416.329 451.018 443.696 442.824 463.444 453.198C462.174 442.61 473.539 434.366 484.133 433.376C490.547 432.792 496.861 433.839 503.189 434.858Z" fill="#009B89"/>
<path opacity="0.17" d="M182.252 555.964C254.637 555.964 313.316 546.181 313.316 534.112C313.316 522.043 254.637 512.259 182.252 512.259C109.867 512.259 51.1875 522.043 51.1875 534.112C51.1875 546.181 109.867 555.964 182.252 555.964Z" fill="#1E1D3F"/>
<path opacity="0.17" d="M10.2148 567.123C43.6983 567.123 70.8421 557.339 70.8421 545.27C70.8421 533.201 43.6983 523.417 10.2148 523.417C-23.2688 523.417 -50.4126 533.201 -50.4126 545.27C-50.4126 557.339 -23.2688 567.123 10.2148 567.123Z" fill="#1E1D3F"/>
</svg>
