<svg width="271" height="189" viewBox="0 0 271 189" fill="none" xmlns="http://www.w3.org/2000/svg">
<path d="M245.772 176.5C245.369 174.903 246.422 173.306 247.601 172.155C248.78 171.004 250.191 169.978 250.809 168.442C251.811 165.968 250.502 162.747 252.201 160.69C253.199 159.479 254.986 159.08 255.868 157.785C256.278 157.068 256.552 156.281 256.676 155.464C257.637 151.353 259.686 147.576 262.608 144.528C262.781 148.199 261.965 151.849 260.245 155.097C259.554 156.397 258.709 157.659 258.472 159.108C258.091 161.465 259.4 163.898 258.802 166.209C258.124 168.855 255.139 170.61 254.981 173.334C254.852 175.655 256.838 177.669 256.685 179.972C256.562 180.956 256.205 181.896 255.645 182.715C253.844 185.667 251.217 187.691 247.253 187.603L242.393 187.747L245.772 176.5Z" fill="#F05A22"/>
<path d="M241.409 187.849C240.965 187.915 240.513 187.902 240.073 187.811C239.535 187.729 239.006 187.594 238.494 187.408C237.791 187.157 237.134 186.791 236.55 186.326C236.202 186.038 235.93 185.67 235.756 185.254C235.611 184.783 235.538 184.293 235.538 183.801C235.531 183.275 235.496 182.75 235.431 182.227C235.339 181.673 235.14 181.142 234.846 180.663C234.28 179.651 233.333 178.695 233.036 177.326C232.739 175.957 232.957 174.541 233.189 173.069C233.421 171.598 233.653 170.029 233.101 168.507C232.548 166.984 231.532 165.606 231.012 163.888C230.492 162.171 230.747 160.3 230.645 158.462C230.616 157.53 230.407 156.613 230.028 155.761C229.638 154.897 229.1 154.085 228.677 153.18C227.828 151.323 227.689 149.267 227.461 147.234C227.353 146.21 227.243 145.175 227.132 144.129C227.065 143.077 226.889 142.035 226.607 141.019C226.287 139.993 225.905 138.987 225.465 138.006C225.236 137.498 225.05 136.972 224.908 136.433C224.829 135.879 224.78 135.321 224.76 134.762C224.714 133.638 224.764 132.512 224.908 131.397C225.048 130.278 225.256 129.169 225.372 128.045C225.372 127.976 225.372 127.911 225.372 127.85L225.4 127.628L225.6 127.73C226.627 128.259 227.518 129.019 228.204 129.949C228.869 130.86 229.404 131.86 229.791 132.919C230.59 135.013 230.873 137.199 231.267 139.292C231.662 141.386 232.196 143.437 233.231 145.178C233.76 146.046 234.396 146.839 234.957 147.684C235.555 148.513 235.961 149.464 236.146 150.469C236.424 152.526 235.278 154.326 235.505 156.146C235.613 157.04 235.911 157.901 236.378 158.671C236.814 159.451 237.306 160.175 237.817 160.899C238.315 161.608 238.747 162.362 239.107 163.15C239.445 163.921 239.643 164.747 239.692 165.587C239.799 167.226 239.557 168.781 239.669 170.229C239.797 171.627 240.197 172.986 240.848 174.23C241.428 175.427 242.073 176.509 242.616 177.563C242.886 178.066 243.129 178.584 243.345 179.113C243.536 179.611 243.676 180.127 243.763 180.654C243.896 181.577 243.896 182.515 243.763 183.439C243.632 184.721 243.15 185.941 242.37 186.967C242.253 187.12 242.121 187.261 241.976 187.389C241.879 187.491 241.772 187.581 241.655 187.658C241.474 187.793 241.377 187.853 241.377 187.853C241.718 187.577 242.029 187.265 242.305 186.925C243.059 185.899 243.521 184.688 243.642 183.42C243.758 182.512 243.742 181.591 243.596 180.686C243.511 180.171 243.369 179.667 243.173 179.183C242.957 178.66 242.714 178.148 242.444 177.651C241.897 176.611 241.242 175.53 240.648 174.323C239.978 173.059 239.565 171.676 239.432 170.252C239.311 168.753 239.548 167.198 239.432 165.61C239.402 164.789 239.226 163.979 238.912 163.22C238.553 162.449 238.126 161.711 237.636 161.015C237.148 160.296 236.628 159.572 236.178 158.773C235.685 157.974 235.368 157.078 235.25 156.146C235.027 154.206 236.178 152.396 235.881 150.483C235.7 149.523 235.307 148.616 234.73 147.828C234.182 146.997 233.537 146.204 232.994 145.312C231.903 143.521 231.379 141.427 230.989 139.329C230.599 137.231 230.307 135.059 229.522 133.012C229.144 131.98 228.622 131.006 227.972 130.12C227.318 129.226 226.464 128.496 225.479 127.99L225.702 127.864C225.702 127.929 225.702 127.994 225.702 128.064C225.577 129.197 225.368 130.311 225.238 131.415C225.094 132.514 225.044 133.622 225.089 134.729C225.117 135.268 225.15 135.839 225.229 136.349C225.367 136.869 225.547 137.376 225.767 137.867C226.211 138.859 226.597 139.876 226.923 140.912C227.207 141.945 227.384 143.004 227.452 144.073C227.559 145.122 227.67 146.157 227.777 147.183C228 149.225 228.139 151.268 228.96 153.041C229.364 153.923 229.889 154.74 230.302 155.626C230.691 156.505 230.907 157.451 230.938 158.411C231.035 160.268 230.78 162.124 231.277 163.782C231.773 165.439 232.822 166.822 233.351 168.391C233.881 169.96 233.667 171.617 233.426 173.069C233.184 174.522 232.938 175.952 233.245 177.247C233.551 178.542 234.438 179.503 235.018 180.538C235.319 181.049 235.515 181.616 235.593 182.204C235.657 182.733 235.689 183.264 235.691 183.796C235.688 184.267 235.754 184.736 235.886 185.189C236.047 185.588 236.306 185.941 236.638 186.215C237.206 186.677 237.845 187.044 238.532 187.301C239.035 187.492 239.556 187.637 240.087 187.732C240.413 187.792 240.743 187.825 241.075 187.83L241.409 187.849Z" fill="#F05A22"/>
<path d="M226.385 130.533C226.409 130.578 226.424 130.627 226.431 130.677C226.459 130.793 226.491 130.937 226.538 131.118C226.631 131.499 226.742 132.079 226.918 132.799C227.095 133.518 227.54 134.34 227.912 135.342C228.283 136.345 228.691 137.496 229.049 138.796C229.406 140.095 229.731 141.534 230.065 143.075C230.354 144.722 230.868 146.322 231.592 147.828C231.987 148.622 232.433 149.425 232.781 150.298C233.125 151.194 233.356 152.129 233.468 153.083C233.701 155.059 234.039 157.023 234.48 158.964L237.162 170.206C238.007 173.65 238.773 176.755 239.414 179.373C240.054 181.991 240.546 184.107 240.904 185.57C241.071 186.284 241.201 186.846 241.294 187.254C241.331 187.435 241.363 187.579 241.386 187.719C241.391 187.77 241.391 187.821 241.386 187.872C241.363 187.826 241.346 187.778 241.335 187.728L241.21 187.292C241.103 186.888 240.95 186.331 240.746 185.621C240.365 184.14 239.817 182.042 239.158 179.456C238.499 176.871 237.71 173.747 236.838 170.308C235.965 166.868 235.129 163.03 234.173 159.042C233.732 157.094 233.394 155.123 233.161 153.138C233.059 152.206 232.839 151.291 232.507 150.414C232.168 149.56 231.732 148.761 231.337 147.963C230.606 146.433 230.093 144.808 229.815 143.136C229.49 141.59 229.183 140.151 228.835 138.861C228.487 137.57 228.121 136.41 227.749 135.412C227.378 134.414 226.974 133.583 226.821 132.836C226.668 132.088 226.566 131.522 226.491 131.132C226.463 130.956 226.44 130.807 226.417 130.691C226.4 130.64 226.389 130.587 226.385 130.533V130.533Z" fill="#F05A22"/>
<path d="M240.551 187.858C237.39 185.955 236.512 180.222 237.854 176.787C239.195 173.353 241.53 170.21 241.911 166.539C242.203 163.717 241.293 160.816 241.966 158.058C242.895 154.345 246.529 151.472 246.506 147.643C246.506 145.493 245.285 143.465 245.397 141.321C245.531 138.689 247.564 136.609 248.827 134.298C250.762 130.761 250.911 126.551 251.589 122.587C252.266 118.623 253.807 114.353 257.349 112.417C257.85 115.801 258.741 118.122 258.421 122.698C258.31 124.341 256.383 127.479 256.1 131.081C255.933 133.23 255.812 135.389 255.669 137.542C255.525 139.696 255.385 141.775 254.624 143.725C254.039 145.224 253.106 146.584 252.67 148.135C251.849 151.049 252.888 154.22 252.206 157.176C251.64 159.678 249.885 161.818 249.523 164.366C249.003 167.936 251.296 171.658 250.094 175.042C249.495 176.727 248.098 178.078 247.694 179.818C247.379 181.174 247.694 182.603 247.42 183.968C246.956 186.159 242.779 187.835 240.537 187.681" fill="#F05A22"/>
<path d="M256.453 115.768C256.459 115.832 256.459 115.895 256.453 115.959C256.453 116.103 256.411 116.284 256.379 116.516C256.304 117.003 256.216 117.718 256.049 118.641C255.882 119.565 255.381 120.619 254.986 121.891C254.592 123.162 254.165 124.606 253.798 126.231C253.431 127.855 253.116 129.656 252.786 131.596C252.457 133.537 252.099 135.644 251.124 137.658C250.66 138.67 250.168 139.682 249.788 140.759C249.412 141.869 249.176 143.021 249.087 144.189C248.898 146.662 248.578 149.122 248.126 151.56C247.128 156.564 246.172 161.308 245.308 165.666C244.445 170.025 243.558 173.896 242.867 177.145C242.175 180.394 241.6 183.035 241.205 184.883L240.741 186.985C240.685 187.208 240.644 187.389 240.611 187.528C240.599 187.59 240.58 187.651 240.555 187.709C240.55 187.646 240.55 187.582 240.555 187.519C240.583 187.38 240.616 187.199 240.657 186.971C240.755 186.465 240.89 185.76 241.066 184.859C241.437 183.003 241.994 180.362 242.63 177.098C243.266 173.835 244.106 169.927 244.993 165.601C245.879 161.275 246.794 156.503 247.778 151.504C248.232 149.069 248.557 146.612 248.753 144.143C248.842 142.952 249.082 141.778 249.467 140.648C249.857 139.543 250.368 138.526 250.823 137.524C251.788 135.542 252.136 133.467 252.489 131.536C252.842 129.605 253.157 127.795 253.543 126.166C253.883 124.699 254.296 123.251 254.782 121.826C255.19 120.559 255.71 119.505 255.887 118.614C256.063 117.722 256.179 116.98 256.277 116.497C256.318 116.27 256.356 116.089 256.379 115.949C256.398 115.887 256.423 115.826 256.453 115.768V115.768Z" fill="#EBEBEB"/>
<path d="M95.5779 62.069H78.7519C78.7519 62.069 80.2372 59.3582 84.5679 59.7481C88.7082 60.1241 88.9171 58.416 91.0198 58.2071C93.1224 57.9982 94.877 59.6135 95.5779 62.069Z" fill="#F5F5F5"/>
<path d="M103.993 15.4855H87.1625C87.1625 15.4855 88.6525 12.7747 92.9832 13.1646C97.1235 13.5406 97.3324 11.8325 99.4351 11.6236C101.538 11.4147 103.306 13.03 103.993 15.4855Z" fill="#FAFAFA"/>
<path d="M61.3316 187.886C61.3316 187.951 108.18 188.006 165.964 188.006C223.748 188.006 270.605 187.951 270.605 187.886C270.605 187.821 223.766 187.765 165.964 187.765C108.161 187.765 61.3316 187.821 61.3316 187.886Z" fill="#263238"/>
<path d="M93.396 106.035C93.4295 105.71 93.5825 105.41 93.8253 105.192C94.0681 104.974 94.3834 104.854 94.7096 104.856H104.62C104.813 104.856 105.004 104.899 105.178 104.982C105.353 105.065 105.507 105.186 105.63 105.335C105.752 105.485 105.84 105.66 105.887 105.847C105.934 106.035 105.938 106.23 105.901 106.42V106.42C105.842 106.723 105.678 106.995 105.438 107.188C105.197 107.381 104.895 107.482 104.587 107.474H94.705C94.522 107.473 94.3411 107.434 94.1739 107.36C94.0067 107.286 93.8567 107.178 93.7336 107.042C93.6105 106.907 93.5169 106.748 93.4588 106.574C93.4006 106.401 93.3793 106.217 93.396 106.035V106.035Z" fill="#263238"/>
<path d="M71.7799 184.637C71.8706 185.255 71.7759 185.887 71.5076 186.452C71.2393 187.017 70.8095 187.489 70.2726 187.81C69.7357 188.13 69.1157 188.284 68.4912 188.252C67.8667 188.221 67.2657 188.004 66.7642 187.631C66.2627 187.257 65.8833 186.743 65.6739 186.154C65.4645 185.565 65.4346 184.927 65.5879 184.32C65.7412 183.714 66.0709 183.167 66.5353 182.748C66.9996 182.33 67.5777 182.058 68.1965 181.968C69.0255 181.847 69.8686 182.06 70.5406 182.56C71.2125 183.061 71.6582 183.808 71.7799 184.637V184.637Z" fill="#263238"/>
<path d="M69.3105 185.115L71.2368 181.132L70.2249 180.487L68.359 184.646L69.3105 185.115Z" fill="#455A64"/>
<path d="M87.1621 136.085L99.1329 104.851L101.407 105.993L89.8079 136.943L87.1621 136.085Z" fill="#263238"/>
<path d="M59.522 177.341L77.2078 184.368C77.5235 184.494 77.8762 184.488 78.1882 184.354C78.5002 184.219 78.7459 183.966 78.8714 183.651L96.462 139.38C97.1265 137.707 97.0995 135.839 96.3867 134.187C95.674 132.534 94.3339 131.232 92.6613 130.568L85.2074 127.606C83.5348 126.941 81.6667 126.968 80.0141 127.681C78.3614 128.394 77.0596 129.734 76.395 131.407L58.8045 175.677C58.679 175.993 58.6841 176.346 58.8187 176.658C58.9532 176.97 59.2062 177.215 59.522 177.341V177.341Z" fill="#FF725E"/>
<path d="M78.8908 183.852C78.8908 183.852 78.9187 183.759 78.9837 183.583L79.2761 182.799L80.4272 179.786L84.7115 168.734C86.5357 164.069 88.6987 158.523 91.103 152.354L94.886 142.685C95.2109 141.85 95.5451 141.005 95.8747 140.151C96.2241 139.316 96.352 138.404 96.246 137.505C96.1318 136.589 95.7725 135.72 95.2061 134.991C94.6396 134.262 93.8869 133.699 93.0273 133.361C92.1677 133.024 91.233 132.925 90.3217 133.074C89.4104 133.223 88.5563 133.616 87.8492 134.21C87.1631 134.799 86.6377 135.553 86.3221 136.401L85.3288 138.94C84.0106 142.291 82.7388 145.521 81.5319 148.604L75.0847 164.961C73.228 169.602 71.7566 173.367 70.7169 175.98L69.5193 178.974C69.3801 179.303 69.278 179.563 69.1991 179.749C69.1202 179.935 69.083 180.009 69.083 180.009C69.083 180.009 69.1109 179.916 69.1759 179.735L69.4683 178.951C69.7329 178.254 70.1228 177.243 70.6194 175.943L74.9037 164.891L81.2952 148.511C82.4974 145.429 83.7646 142.193 85.0782 138.842C85.4031 138.002 85.7373 137.157 86.0715 136.303C86.3961 135.404 86.9478 134.605 87.6729 133.982C88.4176 133.356 89.3176 132.942 90.2778 132.785C91.2381 132.627 92.2232 132.731 93.129 133.087C94.0349 133.442 94.828 134.036 95.4248 134.804C96.0216 135.573 96.3999 136.489 96.5199 137.454C96.6321 138.401 96.4978 139.36 96.13 140.239L95.1366 142.797C93.8184 146.143 92.5466 149.379 91.3398 152.456C88.9168 158.602 86.7306 164.148 84.8971 168.79L80.5293 179.814L79.3272 182.803C79.1926 183.137 79.0858 183.393 79.0069 183.578C78.9738 183.672 78.9351 183.763 78.8908 183.852V183.852Z" fill="#263238"/>
<path d="M80.0326 152.391C79.9955 152.512 77.684 151.597 74.8665 150.358C72.049 149.119 69.7978 148.009 69.8349 147.893C69.8721 147.777 72.1882 148.682 75.0011 149.926C77.8139 151.17 80.0698 152.27 80.0326 152.391Z" fill="#263238"/>
<path d="M95.675 104.851L97.7406 100.766C97.9721 100.31 98.3589 99.9512 98.8313 99.7546L102.081 98.3992L110.835 86.5259L111.661 95.6189L106.091 101.37C106.091 101.37 102.596 108.732 99.7411 108.356C99.8119 107.692 100.007 107.048 100.317 106.457C101.245 104.851 100.256 104.851 100.126 104.86H97.7359L95.675 104.851Z" fill="#FFBE9D"/>
<path d="M109.967 98.571C109.702 98.9655 107.539 101.899 107.539 101.899L101.407 97.4384L103.635 95.2615L109.967 98.571Z" fill="#FF725E"/>
<path d="M100.298 106.457C100.298 106.457 98.7014 107.386 98.5018 108.138V108.602L100.414 108.323L100.298 106.457Z" fill="#FFBE9D"/>
<path d="M98.1584 107.33C98.4415 107.108 98.6622 106.817 98.799 106.485C98.8606 106.317 98.8576 106.133 98.7907 105.967C98.7238 105.802 98.5977 105.667 98.4369 105.589C98.1074 105.478 97.7685 105.714 97.5086 105.951C97.1823 106.243 96.8724 106.553 96.5803 106.88C96.4419 106.998 96.3337 107.148 96.2643 107.317C96.1949 107.485 96.1664 107.668 96.1811 107.85C96.224 107.991 96.3095 108.115 96.4258 108.206C96.5422 108.296 96.6837 108.349 96.8309 108.356C96.9791 108.359 97.1264 108.332 97.2637 108.276C97.401 108.22 97.5254 108.136 97.6293 108.031C97.8361 107.822 98.0015 107.577 98.1167 107.307" fill="#FFBE9D"/>
<path d="M96.5383 107.19C96.8214 106.969 97.0421 106.678 97.1789 106.346C97.2405 106.178 97.2375 105.993 97.1706 105.828C97.1037 105.662 96.9776 105.528 96.8168 105.45C96.4873 105.338 96.1484 105.575 95.8885 105.812C95.5622 106.104 95.2523 106.414 94.9602 106.74C94.8218 106.859 94.7136 107.009 94.6442 107.177C94.5748 107.346 94.5463 107.529 94.561 107.71C94.6039 107.851 94.6894 107.976 94.8057 108.066C94.922 108.157 95.0635 108.209 95.2108 108.216C95.359 108.219 95.5062 108.192 95.6434 108.136C95.7807 108.08 95.9052 107.997 96.0092 107.891C96.216 107.683 96.3813 107.437 96.4965 107.167" fill="#FFBE9D"/>
<path d="M101.407 100.219C101.407 100.163 100.994 100.182 100.516 100.595C100.294 100.866 100.108 101.166 99.9638 101.486C99.7477 101.875 99.6387 102.313 99.6482 102.758C99.7147 103.195 99.8868 103.609 100.149 103.965C100.327 104.251 100.456 104.565 100.53 104.893C100.597 105.198 100.619 105.51 100.595 105.821C100.676 105.676 100.726 105.516 100.744 105.351C100.761 105.186 100.745 105.019 100.697 104.861C100.641 104.509 100.52 104.17 100.34 103.863C100.104 103.531 99.9453 103.15 99.8756 102.749C99.8703 102.345 99.9644 101.947 100.149 101.588C100.272 101.28 100.427 100.985 100.614 100.711C100.773 100.553 100.954 100.418 101.152 100.312C101.235 100.276 101.321 100.245 101.407 100.219Z" fill="#F05A22"/>
<path d="M167.463 58.3232L173.97 79.1271L154.828 99.1188L137.287 94.5606L167.463 58.3232Z" fill="#F5F5F5"/>
<path d="M167.467 58.3186L167.319 58.4903L166.878 59.0102L165.17 61.0433L158.806 68.6324L137.19 94.4864L137.069 94.6303L137.25 94.6767L147.137 97.2482L154.791 99.2348H154.861L154.907 99.1837L174.04 79.2061L174.077 79.1643V79.1132C172.063 72.7402 170.41 67.5369 169.264 63.9164C168.697 62.1248 168.252 60.7276 167.946 59.7714L167.602 58.6946C167.523 58.4579 167.486 58.3372 167.486 58.3372C167.709 59.0659 169.997 66.5065 173.896 79.1689L173.919 79.0761L154.763 99.0352L154.879 99.0027L147.225 97.0114L137.338 94.44L137.399 94.6349L158.82 68.7902L165.161 61.1314L166.869 59.0566L167.333 58.5182L167.467 58.3186Z" fill="#263238"/>
<path d="M166.869 72.0439C166.626 71.6661 166.309 71.3412 165.937 71.0888C165.566 70.8364 165.147 70.6616 164.706 70.5749C164.265 70.4882 163.812 70.4914 163.372 70.5843C162.932 70.6772 162.516 70.8579 162.148 71.1155C160.951 72.0439 160.398 73.7938 158.959 74.2579C157.92 74.5921 156.773 74.1048 155.71 74.2951C154.452 74.5225 153.515 75.6876 153.153 76.8944C152.791 78.1012 152.888 79.4334 152.99 80.7098L159.215 80.7934L166.869 72.0439Z" fill="#E0E0E0"/>
<path d="M178.38 60.2217L138.044 101.788L154.48 100.121L177.47 75.8501L178.38 60.2217Z" fill="#F5F5F5"/>
<path d="M178.375 60.2217C178.338 60.8297 178.004 66.1769 177.391 75.8455V75.7944C171.51 81.9864 163.466 90.4481 154.373 100.042L154.448 100.005L141.836 101.277L138.012 101.667L138.109 101.871C160.537 78.663 177.466 61.1454 178.352 60.2217L137.937 101.704L137.705 101.941L138.035 101.908L141.864 101.518L154.471 100.237H154.513L154.545 100.21C163.624 90.5967 171.645 82.1071 177.507 75.9105V75.8826C178.064 66.1816 178.348 60.8297 178.375 60.2217Z" fill="#263238"/>
<path d="M162.594 76.7412C163.838 78.1755 163.657 80.4545 162.594 82.0373C161.531 83.6201 159.776 84.5763 158.003 85.2586C156.569 85.811 154.8 86.1591 153.612 85.1844" fill="#E0E0E0"/>
<path d="M164.692 74.4807C164.618 74.8289 165.054 75.0888 165.407 75.0563C165.759 75.0238 166.084 74.8242 166.442 74.8057C167.412 74.75 167.941 75.9011 168.73 76.4627C169.206 76.7736 169.784 76.8869 170.342 76.7786C170.9 76.6703 171.394 76.3489 171.719 75.8825C172.248 75.0609 172.235 73.8448 173.07 73.3389C173.562 73.0984 174.125 73.0472 174.653 73.195C175.175 73.3403 175.718 73.3968 176.259 73.3621C176.528 73.3372 176.781 73.2203 176.975 73.0309C177.168 72.8416 177.291 72.5914 177.322 72.3224L177.614 71.8582L178.301 60.384L164.692 74.4807Z" fill="#E0E0E0"/>
<path d="M145.034 100.948C144.827 101 144.612 101.01 144.401 100.976C144.19 100.942 143.989 100.865 143.809 100.75C143.629 100.635 143.474 100.485 143.354 100.308C143.235 100.131 143.152 99.9319 143.113 99.7221C143.061 99.2616 143.188 98.7987 143.466 98.4284C143.745 98.0582 144.155 97.8086 144.612 97.7309C145.434 97.6241 146.283 98.1022 147.072 97.8562C147.973 97.573 148.344 96.5287 148.571 95.6143C148.799 94.6999 149.119 93.6555 149.992 93.2934C151.435 92.7086 152.958 94.5606 154.466 94.1522C155.585 93.8504 156.017 92.5044 156.894 91.7478C157.249 91.447 157.675 91.2422 158.132 91.1528C158.588 91.0634 159.06 91.0925 159.502 91.2372C159.904 91.3354 160.268 91.5482 160.551 91.8499C160.834 92.1515 161.023 92.5289 161.094 92.936L154.434 99.9589L145.034 100.948Z" fill="#E0E0E0"/>
<path d="M156.063 171.194L157.72 180.747C157.72 180.747 167.987 182.269 168.465 183.996L150.057 187.876L146.863 173.097L156.063 171.194Z" fill="#FF725E"/>
<g opacity="0.6">
<path opacity="0.6" d="M151.858 181.151C151.692 181.241 151.566 181.39 151.503 181.568C151.441 181.747 151.446 181.942 151.519 182.116C151.604 182.285 151.75 182.415 151.928 182.478C152.106 182.542 152.302 182.536 152.475 182.459C152.651 182.363 152.784 182.204 152.849 182.015C152.914 181.825 152.907 181.618 152.828 181.434C152.721 181.267 152.553 181.147 152.36 181.102C152.167 181.056 151.963 181.087 151.793 181.188" fill="white"/>
</g>
<path opacity="0.6" d="M150.057 187.886L149.723 186.428L167.528 183.244C167.528 183.244 168.419 183.43 168.456 184.024L150.057 187.886Z" fill="white"/>
<path d="M157.999 180.589C157.999 180.682 157.572 180.816 157.191 181.197C156.81 181.578 156.652 182.009 156.564 181.991C156.476 181.972 156.499 181.424 156.968 180.97C157.437 180.515 157.999 180.505 157.999 180.589Z" fill="#263238"/>
<path d="M160.096 180.983C160.134 181.067 159.776 181.299 159.553 181.745C159.331 182.19 159.326 182.608 159.233 182.627C159.14 182.645 158.978 182.162 159.27 181.596C159.563 181.03 160.078 180.895 160.096 180.983Z" fill="#263238"/>
<path d="M161.679 183.063C161.6 183.1 161.382 182.678 161.508 182.135C161.633 181.592 162.014 181.308 162.069 181.378C162.125 181.448 161.921 181.763 161.819 182.209C161.717 182.655 161.768 183.035 161.679 183.063Z" fill="#263238"/>
<path d="M157.377 178.454C157.377 178.547 156.912 178.51 156.416 178.649C155.919 178.788 155.557 179.034 155.488 178.969C155.418 178.904 155.738 178.505 156.328 178.343C156.917 178.18 157.409 178.375 157.377 178.454Z" fill="#263238"/>
<path opacity="0.3" d="M156.388 173.088L156.685 174.787L147.62 176.611L147.286 175.093L156.388 173.088Z" fill="black"/>
<path d="M157.01 176.532C156.723 176.677 156.403 176.743 156.082 176.722C155.736 176.736 155.389 176.705 155.051 176.63C154.853 176.586 154.658 176.53 154.466 176.462C154.35 176.427 154.241 176.374 154.141 176.305C154.07 176.253 154.018 176.18 153.992 176.097C153.966 176.013 153.968 175.923 153.998 175.84C154.03 175.769 154.079 175.705 154.14 175.656C154.202 175.606 154.273 175.57 154.35 175.553C154.466 175.528 154.585 175.52 154.703 175.529C155.262 175.545 155.807 175.705 156.286 175.994C156.796 176.3 157.015 176.602 156.987 176.63C156.959 176.657 156.685 176.43 156.184 176.193C155.718 175.978 155.212 175.861 154.698 175.85C154.494 175.85 154.327 175.873 154.295 175.97C154.262 176.068 154.295 176.022 154.336 176.073C154.41 176.12 154.49 176.159 154.573 176.189C154.753 176.255 154.935 176.312 155.121 176.36C155.437 176.443 155.76 176.496 156.086 176.518C156.394 176.502 156.703 176.507 157.01 176.532V176.532Z" fill="#263238"/>
<path d="M156.917 176.681C156.889 176.704 156.643 176.421 156.485 175.845C156.4 175.507 156.372 175.157 156.402 174.81C156.417 174.602 156.456 174.396 156.518 174.197C156.542 174.066 156.6 173.942 156.685 173.839C156.77 173.736 156.881 173.656 157.005 173.608C157.088 173.595 157.172 173.604 157.25 173.635C157.328 173.667 157.395 173.718 157.446 173.784C157.516 173.883 157.572 173.991 157.613 174.105C157.689 174.302 157.733 174.511 157.743 174.722C157.765 175.079 157.7 175.436 157.553 175.762C157.293 176.314 156.94 176.5 156.926 176.472C156.912 176.444 157.163 176.193 157.34 175.673C157.444 175.376 157.482 175.059 157.451 174.745C157.431 174.564 157.388 174.386 157.321 174.216C157.251 174.03 157.145 173.886 157.075 173.924C157.005 173.961 156.857 174.119 156.815 174.29C156.756 174.464 156.712 174.643 156.685 174.824C156.64 175.143 156.64 175.466 156.685 175.785C156.796 176.347 156.964 176.681 156.917 176.681Z" fill="#263238"/>
<path d="M95.5729 171.775L99.5508 166.576L99.7597 166.307L106.555 171.352L100.275 178.25L100.502 185.235C104.002 186.136 104.527 187.886 104.527 187.886H97.2578L90.6527 175.168L95.5729 171.775Z" fill="#FF725E"/>
<path opacity="0.6" d="M90.6389 175.158L97.244 187.876L104.513 187.886L103.696 186.79L97.7824 186.461L91.6879 174.439L90.6389 175.158Z" fill="white"/>
<path d="M100.447 182.033C100.391 182.107 99.9826 181.87 99.4116 181.884C98.8407 181.898 98.4369 182.135 98.3812 182.061C98.3255 181.986 98.72 181.596 99.407 181.564C100.094 181.531 100.521 181.977 100.447 182.033Z" fill="#263238"/>
<path d="M100.331 180.301C100.256 180.352 99.936 179.925 99.3558 179.809C98.7756 179.693 98.3115 179.962 98.2651 179.888C98.2186 179.814 98.3208 179.73 98.525 179.619C98.8007 179.483 99.1136 179.442 99.4151 179.502C99.7165 179.563 99.9894 179.721 100.191 179.953C100.335 180.139 100.368 180.283 100.331 180.301Z" fill="#263238"/>
<path d="M100.377 178.073C100.298 178.115 100.052 177.693 99.5461 177.516C99.0402 177.34 98.5853 177.516 98.5482 177.423C98.511 177.331 98.6178 177.289 98.822 177.215C99.0906 177.118 99.3843 177.118 99.6529 177.215C99.9196 177.312 100.147 177.495 100.298 177.734C100.409 177.925 100.419 178.073 100.377 178.073Z" fill="#263238"/>
<path d="M102.327 176.356C102.238 176.384 102.034 175.97 101.584 175.678C101.134 175.386 100.683 175.344 100.656 175.251C100.628 175.158 101.199 175.042 101.742 175.413C102.285 175.785 102.415 176.346 102.327 176.356Z" fill="#263238"/>
<path d="M103.274 174.861C103.236 174.884 103 174.592 102.642 174.1L102.025 173.227C101.886 173.048 101.773 172.849 101.691 172.638C101.666 172.562 101.657 172.481 101.664 172.401C101.671 172.322 101.694 172.244 101.732 172.174C101.777 172.098 101.842 172.036 101.92 171.996C101.998 171.956 102.086 171.938 102.173 171.946C102.429 171.995 102.665 172.118 102.851 172.299C103.03 172.442 103.186 172.611 103.315 172.8C103.522 173.117 103.652 173.478 103.696 173.854C103.772 174.192 103.714 174.546 103.533 174.843C103.532 174.523 103.511 174.204 103.473 173.886C103.404 173.553 103.268 173.237 103.074 172.958C102.96 172.798 102.826 172.653 102.675 172.526C102.532 172.396 102.36 172.302 102.173 172.252C102.146 172.249 102.118 172.254 102.093 172.266C102.068 172.278 102.048 172.298 102.034 172.322C102.01 172.388 102.01 172.46 102.034 172.526C102.109 172.705 102.204 172.875 102.317 173.032C102.503 173.343 102.689 173.645 102.874 173.961C103.055 174.238 103.189 174.542 103.274 174.861Z" fill="#263238"/>
<path d="M103.533 175.079C103.501 175.079 103.533 174.694 103.923 174.258C104.191 173.968 104.546 173.773 104.935 173.703C105.324 173.632 105.724 173.69 106.077 173.868C106.114 173.9 106.144 173.94 106.164 173.985C106.184 174.03 106.194 174.079 106.193 174.128C106.188 174.212 106.158 174.293 106.105 174.36C106.029 174.448 105.942 174.524 105.845 174.587C105.684 174.702 105.511 174.8 105.33 174.88C105.027 175.019 104.704 175.11 104.374 175.149C104.072 175.213 103.758 175.184 103.473 175.065C103.473 175.014 103.817 175.037 104.336 174.926C104.636 174.86 104.927 174.756 105.2 174.615C105.362 174.534 105.517 174.439 105.664 174.332C105.735 174.287 105.799 174.232 105.854 174.169C105.887 174.105 105.854 174.123 105.854 174.105C105.789 174.064 105.716 174.038 105.641 174.026C105.552 174.007 105.462 173.993 105.372 173.984C105.199 173.973 105.026 173.985 104.856 174.021C104.566 174.087 104.296 174.224 104.072 174.42C103.691 174.764 103.584 175.098 103.533 175.079Z" fill="#263238"/>
<path opacity="0.6" d="M96.4409 174.94C96.4409 175.111 96.3903 175.278 96.2954 175.42C96.2006 175.562 96.0657 175.672 95.908 175.738C95.7502 175.803 95.5766 175.82 95.4091 175.787C95.2417 175.753 95.0878 175.671 94.9671 175.55C94.8464 175.43 94.7641 175.276 94.7308 175.108C94.6975 174.941 94.7146 174.767 94.7799 174.61C94.8453 174.452 94.956 174.317 95.0979 174.222C95.2399 174.127 95.4068 174.077 95.5776 174.077C95.8066 174.077 96.0261 174.168 96.1881 174.33C96.35 174.491 96.4409 174.711 96.4409 174.94Z" fill="white"/>
<path opacity="0.3" d="M105.91 172.044L104.513 173.58L98.6411 167.764L99.458 166.701L105.91 172.044Z" fill="black"/>
<path d="M123.985 50.9894C120.1 49.6396 115.907 49.4493 111.916 50.4417C110.148 50.8826 108.351 51.616 107.219 53.0456C105.877 54.7352 105.71 57.0374 105.502 59.1865C105.082 63.5579 104.277 67.8837 103.097 72.1135C102.113 75.6319 100.869 79.076 100.335 82.7104C99.8016 86.3449 100.048 90.1928 101.89 93.3491C104.731 98.2136 110.77 100.363 116.4 100.46C119.361 100.507 122.397 100.075 125.024 98.7009C127.652 97.327 129.838 94.9273 130.478 92.0355" fill="#FF725E"/>
<g opacity="0.5">
<path opacity="0.5" d="M123.985 50.9894C120.1 49.6396 115.907 49.4493 111.916 50.4417C110.148 50.8826 108.351 51.616 107.219 53.0456C105.877 54.7352 105.71 57.0374 105.502 59.1865C105.082 63.5579 104.277 67.8837 103.097 72.1135C102.113 75.6319 100.869 79.076 100.335 82.7104C99.8016 86.3449 100.048 90.1928 101.89 93.3491C104.731 98.2136 110.77 100.363 116.4 100.46C119.361 100.507 122.397 100.075 125.024 98.7009C127.652 97.327 129.838 94.9273 130.478 92.0355" fill="black"/>
</g>
<path d="M116.242 55.4453C115.632 55.978 115.091 56.5845 114.632 57.2509C114.154 57.9905 113.735 58.7665 113.378 59.5717C112.942 60.5717 112.441 61.5423 111.879 62.4774C111.301 63.4249 110.506 64.2206 109.558 64.7983C108.766 65.2716 107.834 65.4538 106.922 65.3135C106.311 65.226 105.738 64.9632 105.274 64.5569C105.15 64.4455 105.041 64.3193 104.949 64.1809C104.884 64.0881 104.856 64.037 104.865 64.0324C104.875 64.0277 105.023 64.2088 105.33 64.4641C105.796 64.8179 106.349 65.0392 106.931 65.1046C107.792 65.207 108.663 65.0139 109.4 64.5569C110.303 63.9878 111.06 63.2172 111.614 62.3057C112.169 61.3807 112.669 60.4244 113.114 59.4418C113.488 58.6303 113.934 57.8536 114.446 57.121C114.794 56.6246 115.207 56.178 115.676 55.7934C115.843 55.6458 116.035 55.528 116.242 55.4453V55.4453Z" fill="#E0E0E0"/>
<path d="M108.087 98.9237C108.075 98.8018 108.075 98.679 108.087 98.5571C108.087 98.2878 108.087 97.9444 108.087 97.5173C108.087 96.6168 108.152 95.3079 108.222 93.6972C108.365 90.4481 108.616 86.0107 109.006 81.0998C109.396 76.1889 109.837 71.7422 110.199 68.5348C110.385 66.9288 110.542 65.6292 110.663 64.738C110.719 64.3156 110.77 63.9721 110.807 63.7075C110.818 63.5864 110.842 63.4667 110.877 63.3501C110.891 63.4704 110.891 63.5919 110.877 63.7121C110.853 63.9814 110.821 64.3248 110.788 64.7472C110.696 65.6756 110.57 66.9752 110.422 68.5534C110.111 71.7701 109.698 76.2121 109.312 81.123C108.927 86.0339 108.639 90.4852 108.444 93.7065C108.347 95.2893 108.268 96.5843 108.212 97.522L108.138 98.5617C108.132 98.6836 108.115 98.8048 108.087 98.9237Z" fill="#E0E0E0"/>
<path d="M109.243 79.206C109.243 79.2849 107.465 79.2663 105.293 78.9925C103.12 78.7186 101.394 78.3102 101.408 78.2359C101.421 78.1616 103.167 78.4309 105.33 78.7001C107.493 78.9693 109.247 79.1039 109.243 79.206Z" fill="#E0E0E0"/>
<path d="M107.808 79.1458C107.949 79.4063 108.032 79.6947 108.05 79.9905C108.103 80.3052 108.136 80.6231 108.147 80.9421C108.163 81.1501 108.128 81.3588 108.045 81.5501C107.993 81.6665 107.909 81.7658 107.803 81.8365C107.697 81.9071 107.574 81.9463 107.446 81.9493C107.374 81.9524 107.302 81.9385 107.236 81.9087C107.169 81.8788 107.111 81.8339 107.066 81.7776C106.985 81.6768 106.938 81.5535 106.931 81.4248C106.925 81.2234 106.953 81.0225 107.015 80.8307C107.092 80.5126 107.198 80.2019 107.33 79.9023C107.558 79.4057 107.771 79.1411 107.794 79.1597C107.729 79.442 107.636 79.7172 107.516 79.9813C107.418 80.2738 107.336 80.5713 107.27 80.8724C107.227 81.0375 107.208 81.2079 107.214 81.3784C107.214 81.5362 107.307 81.6337 107.437 81.6337C107.748 81.6337 107.873 81.2577 107.859 80.9235C107.845 80.5893 107.859 80.2597 107.831 79.9952C107.788 79.7141 107.78 79.4287 107.808 79.1458V79.1458Z" fill="#E0E0E0"/>
<path d="M127.813 52.6696L109.164 50.4921C106.723 50.207 104.974 47.9963 105.259 45.5545L105.664 42.0922C105.949 39.6503 108.159 37.902 110.601 38.1871L129.25 40.3646C131.692 40.6498 133.44 42.8604 133.155 45.3022L132.751 48.7646C132.466 51.2064 130.255 52.9547 127.813 52.6696Z" fill="#455A64"/>
<path d="M110.914 38.4847C110.914 38.4847 110.969 38.4476 111.09 38.4105C111.268 38.3595 111.452 38.3315 111.638 38.3269C112.331 38.3298 113.004 38.5633 113.55 38.9907C114.386 39.5791 115.049 40.3804 115.472 41.3115C115.943 42.4628 116.125 43.7125 116.001 44.9505C115.933 46.1996 115.496 47.4002 114.743 48.3993C114.125 49.2152 113.276 49.8265 112.306 50.1538C111.661 50.3761 110.974 50.4522 110.296 50.3766C110.112 50.3563 109.93 50.319 109.753 50.2652C109.632 50.2281 109.572 50.2049 109.577 50.1956C109.581 50.1863 109.837 50.2328 110.305 50.2606C110.963 50.2892 111.62 50.185 112.236 49.9543C113.151 49.6164 113.947 49.0177 114.525 48.2322C115.228 47.2677 115.636 46.1195 115.699 44.9273C115.827 43.7389 115.667 42.5372 115.235 41.4229C114.839 40.5311 114.22 39.756 113.439 39.1717C112.933 38.7538 112.31 38.5039 111.656 38.4569C111.173 38.4244 110.918 38.5126 110.914 38.4847Z" fill="#263238"/>
<path d="M121.571 39.4269L118.693 39.1438C119.462 39.3791 120.121 39.8832 120.55 40.5641C120.967 41.2412 121.236 41.9989 121.339 42.7875C121.854 46.097 120.095 49.6525 117.268 51.4442L119.589 51.7505C119.589 51.7505 126.227 45.8231 121.59 39.4269" fill="#263238"/>
<path d="M124.829 45.5168C124.088 45.7221 123.308 45.7509 122.554 45.6009C121.799 45.4509 121.09 45.1263 120.483 44.6531C119.876 44.1798 119.388 43.571 119.059 42.8755C118.73 42.18 118.568 41.4171 118.586 40.6478C118.619 39.2228 119.269 37.7653 118.823 36.4053C118.517 35.4769 117.737 34.7436 117.472 33.8013C117.082 32.3856 117.936 30.9606 118.749 29.7445C119.232 28.9365 119.835 28.2058 120.536 27.5769C120.889 27.2636 121.306 27.0317 121.758 26.8978C122.211 26.7638 122.687 26.731 123.154 26.8017" fill="#263238"/>
<path d="M138.012 26.927C137.933 28.0039 138.643 28.9693 139.362 29.777C140.082 30.5846 140.876 31.434 141.033 32.5016C141.307 34.4001 139.451 36.1592 139.831 38.0391C140.04 39.0464 140.862 39.854 141.01 40.8705C141.159 41.8871 140.625 42.82 139.97 43.5673C139.316 44.3146 138.522 44.9598 137.942 45.7489C137.391 46.641 136.925 47.5827 136.55 48.5617C136.175 49.548 135.493 50.3876 134.605 50.9568C133.212 51.7088 131.281 51.356 130.223 52.5211C129.165 53.6861 127.939 53.8207 126.677 54.6702" fill="#263238"/>
<path d="M121.408 28.5749C121.381 27.6002 122.286 26.8436 123.195 26.4862C124.105 26.1288 125.122 25.9895 125.934 25.4418C126.653 24.9776 127.136 24.2071 127.744 23.5851C128.496 22.8268 129.436 22.2817 130.467 22.0053C131.499 21.729 132.585 21.7314 133.616 22.0122C134.646 22.293 135.583 22.8422 136.332 23.6038C137.081 24.3653 137.614 25.3119 137.877 26.3469C138.225 27.7394 137.988 29.3872 136.888 30.3155C135.612 31.3878 133.723 31.151 132.089 30.8168C130.455 30.4826 128.608 30.1531 127.243 31.1139C126.421 31.6895 125.953 32.6317 125.447 33.5043C124.941 34.377 124.314 35.2635 123.363 35.5885C122.411 35.9134 121.121 35.3517 121.083 34.3491" fill="#263238"/>
<path d="M125.284 28.779C124.877 28.822 124.501 29.0169 124.231 29.3249C123.96 29.6328 123.816 30.0312 123.827 30.4407L124.801 52.5536C124.843 55.1668 128.659 56.6336 131.458 56.5686C134.28 56.5036 134.373 55.1157 134.405 52.6325C134.465 48.4828 134.461 46.9232 134.461 46.9464C134.461 46.9696 138.03 46.3477 138.759 41.6921C139.121 39.3712 138.996 35.579 138.791 32.4784C138.61 29.6934 136.754 26.2632 133.969 26.5603L125.284 28.779Z" fill="#FFBE9D"/>
<path d="M137.909 35.1382C137.912 35.2942 137.853 35.4449 137.745 35.5578C137.638 35.6707 137.49 35.7367 137.334 35.7416C137.259 35.7466 137.183 35.7366 137.111 35.7122C137.04 35.6878 136.974 35.6494 136.917 35.5994C136.861 35.5493 136.815 35.4885 136.782 35.4205C136.749 35.3525 136.73 35.2786 136.726 35.2032C136.723 35.0479 136.782 34.8979 136.888 34.7851C136.995 34.6723 137.142 34.6058 137.297 34.5997C137.373 34.5941 137.449 34.6036 137.521 34.6277C137.593 34.6518 137.659 34.6901 137.716 34.7402C137.773 34.7904 137.82 34.8514 137.853 34.9197C137.886 34.988 137.905 35.0623 137.909 35.1382V35.1382Z" fill="#263238"/>
<path d="M137.974 34.4511C137.9 34.53 137.445 34.1958 136.805 34.2004C136.164 34.2051 135.691 34.5254 135.621 34.4464C135.551 34.3675 135.663 34.2701 135.867 34.1215C136.14 33.9336 136.464 33.8317 136.795 33.8291C137.128 33.8283 137.453 33.9322 137.724 34.1262C137.942 34.2793 138.012 34.4186 137.974 34.4511Z" fill="#263238"/>
<path d="M131.513 35.3005C131.516 35.4565 131.457 35.6073 131.349 35.7202C131.242 35.8331 131.094 35.8991 130.938 35.9039C130.862 35.9103 130.786 35.9014 130.714 35.8778C130.642 35.8542 130.576 35.8164 130.519 35.7666C130.461 35.7168 130.415 35.6561 130.382 35.588C130.348 35.5199 130.329 35.4458 130.325 35.3702C130.323 35.2145 130.381 35.0639 130.487 34.9504C130.594 34.8368 130.74 34.7693 130.896 34.7621C130.972 34.7564 131.048 34.7659 131.121 34.79C131.193 34.814 131.26 34.8522 131.317 34.9023C131.375 34.9524 131.422 35.0134 131.455 35.0817C131.489 35.1501 131.509 35.2245 131.513 35.3005V35.3005Z" fill="#263238"/>
<path d="M131.657 34.5857C131.583 34.6646 131.133 34.3304 130.488 34.3351C129.842 34.3397 129.378 34.66 129.309 34.5811C129.239 34.5022 129.346 34.4047 129.555 34.2562C129.826 34.065 130.151 33.9628 130.483 33.9637C130.816 33.9597 131.142 34.0639 131.411 34.2608C131.62 34.4093 131.694 34.5532 131.657 34.5857Z" fill="#263238"/>
<path d="M134.001 39.3481C134.34 39.2398 134.691 39.1743 135.045 39.1531C135.208 39.1531 135.361 39.1067 135.389 38.9953C135.406 38.8256 135.368 38.6551 135.282 38.5079L134.79 37.2593C134.34 36.2067 133.974 35.1203 133.695 34.0102C133.769 33.9823 134.377 35.4027 135.05 37.1758C135.217 37.6399 135.37 38.0345 135.514 38.4337C135.62 38.6297 135.651 38.857 135.602 39.0742C135.579 39.132 135.542 39.1838 135.495 39.2255C135.449 39.2673 135.393 39.2981 135.333 39.3156C135.243 39.3411 135.149 39.3551 135.055 39.3573C134.704 39.3961 134.351 39.393 134.001 39.3481V39.3481Z" fill="#263238"/>
<path d="M134.461 46.9464C132.271 46.9915 130.112 46.4292 128.222 45.3218C128.222 45.3218 129.763 48.492 134.405 48.0464L134.461 46.9464Z" fill="#F05A22"/>
<path d="M133.732 40.8938C133.609 40.741 133.449 40.6218 133.267 40.5472C133.085 40.4725 132.888 40.4449 132.692 40.4667C132.551 40.4809 132.413 40.523 132.288 40.5908C132.163 40.6585 132.053 40.7505 131.964 40.8613C131.878 40.9687 131.828 41.0999 131.82 41.2369C131.811 41.3739 131.845 41.5102 131.917 41.6271C132.021 41.7416 132.156 41.8226 132.305 41.8598C132.455 41.897 132.612 41.8887 132.757 41.836C133.061 41.7287 133.341 41.5613 133.579 41.344C133.652 41.2938 133.713 41.229 133.76 41.1537C133.785 41.1194 133.799 41.0779 133.799 41.0353C133.799 40.9927 133.785 40.9513 133.76 40.917" fill="#F05A22"/>
<path d="M132.112 39.7938C132.214 39.7938 132.219 40.4854 132.818 40.9774C133.416 41.4694 134.159 41.3952 134.164 41.4926C134.168 41.5901 133.997 41.6272 133.699 41.6365C133.29 41.6449 132.892 41.5066 132.576 41.2466C132.27 41.0004 132.073 40.6435 132.028 40.2533C131.987 39.9655 132.084 39.7891 132.112 39.7938Z" fill="#263238"/>
<path d="M131.945 33.4624C131.885 33.6342 131.239 33.5553 130.488 33.6481C129.736 33.7409 129.123 33.9452 129.025 33.792C128.979 33.7131 129.086 33.5506 129.332 33.3789C129.657 33.1686 130.028 33.0382 130.413 32.9983C130.799 32.9519 131.19 32.9964 131.555 33.1282C131.834 33.2536 131.973 33.3789 131.945 33.4624Z" fill="#263238"/>
<path d="M137.733 32.5946C137.622 32.7385 137.176 32.5946 136.647 32.5946C136.118 32.5946 135.663 32.6921 135.561 32.5389C135.514 32.4693 135.584 32.3207 135.779 32.1815C136.043 32.0147 136.352 31.9305 136.664 31.9396C136.977 31.9487 137.279 32.0507 137.534 32.2325C137.719 32.3718 137.784 32.525 137.733 32.5946Z" fill="#263238"/>
<path d="M122.035 44.0917C122.678 44.2214 123.343 44.1961 123.975 44.0179C124.606 43.8397 125.187 43.5138 125.667 43.0671C126.148 42.6204 126.516 42.0657 126.739 41.4489C126.963 40.8321 127.037 40.1708 126.955 39.5197C126.807 38.3779 126.194 37.1989 126.589 36.1313C127.113 34.7017 129.118 34.2746 129.652 32.8357C129.958 32.0049 129.68 31.0348 130.033 30.2225C130.385 29.4102 131.165 29.0157 131.95 28.7325C132.756 28.5244 133.525 28.1908 134.229 27.7438C134.888 27.2333 135.296 26.2678 134.874 25.553C131.396 25.9672 127.98 26.7963 124.699 28.0223C123.943 28.3055 123.144 28.649 122.694 29.322C122.244 29.995 122.23 30.9605 122.281 31.8192L122.866 44.3517" fill="#263238"/>
<path d="M119.528 47.963C119.531 47.564 119.613 47.1694 119.77 46.8026C119.962 46.378 120.231 45.9925 120.564 45.6654C121.01 45.239 121.517 44.8808 122.067 44.6025C122.675 44.2729 123.376 43.9712 124.091 43.5627C124.879 43.144 125.543 42.5263 126.017 41.7711C126.266 41.3487 126.401 40.8687 126.407 40.3786C126.387 39.8808 126.317 39.3864 126.198 38.9025C126.069 38.4265 126.036 37.9294 126.101 37.4404C126.151 37.1999 126.255 36.9735 126.403 36.7777C126.552 36.5818 126.742 36.4214 126.96 36.3078C127.424 36.0479 127.888 35.8854 128.375 35.6626C128.874 35.4606 129.295 35.1044 129.578 34.6461C129.812 34.1914 129.933 33.6865 129.93 33.1747C129.93 32.6873 129.93 32.2185 129.93 31.7822C129.919 31.3462 129.982 30.9115 130.116 30.4965C130.251 30.1162 130.497 29.7849 130.822 29.5449C131.45 29.1413 132.152 28.8653 132.887 28.7327C133.509 28.6088 134.104 28.3729 134.642 28.0364C135.047 27.7605 135.345 27.3518 135.482 26.8806C135.577 26.5879 135.577 26.2728 135.482 25.9802C135.446 25.8817 135.392 25.7906 135.324 25.7109C135.324 25.7109 135.375 25.8084 135.435 25.9987C135.514 26.2811 135.504 26.5807 135.408 26.8574C135.262 27.2958 134.972 27.672 134.586 27.925C134.054 28.2385 133.471 28.4568 132.864 28.5702C132.103 28.6973 131.374 28.9733 130.719 29.3825C130.361 29.644 130.088 30.0058 129.935 30.4222C129.791 30.8594 129.721 31.3174 129.726 31.7776C129.726 32.2417 129.726 32.7059 129.726 33.1701C129.727 33.6443 129.616 34.1119 129.401 34.5347C129.142 34.9529 128.757 35.278 128.301 35.4631C127.837 35.6812 127.34 35.839 126.862 36.1175C126.622 36.2591 126.409 36.4413 126.231 36.656C126.061 36.8767 125.945 37.1342 125.892 37.4079C125.822 37.9294 125.857 38.4596 125.994 38.9675C126.112 39.4342 126.182 39.9117 126.203 40.3925C126.201 40.8462 126.08 41.2913 125.85 41.6829C125.399 42.4086 124.767 43.0051 124.017 43.4142C123.321 43.8227 122.624 44.1337 122.012 44.4771C121.452 44.7704 120.94 45.1476 120.494 45.5958C120.158 45.9389 119.891 46.3441 119.709 46.7887C119.595 47.069 119.534 47.368 119.528 47.6706C119.523 47.7494 119.523 47.8285 119.528 47.9073C119.519 47.9352 119.524 47.963 119.528 47.963Z" fill="#263238"/>
<path d="M133.096 51.1566C133.167 51.1921 133.244 51.2156 133.323 51.2262C133.418 51.2492 133.514 51.2647 133.611 51.2727C133.742 51.2923 133.874 51.3016 134.006 51.3005C134.862 51.3013 135.698 51.0388 136.401 50.5485C136.892 50.2165 137.304 49.7808 137.608 49.2721C137.932 48.6787 138.143 48.0302 138.23 47.3597C138.313 46.6452 138.517 45.95 138.833 45.3035C139.195 44.6583 139.868 44.2313 140.476 43.6789C141.098 43.1403 141.503 42.3951 141.618 41.5809C141.726 40.8243 141.574 40.0534 141.186 39.3947C140.808 38.858 140.484 38.286 140.216 37.6865C140.034 37.1511 139.966 36.5835 140.017 36.0202C140.109 35.1952 140.307 34.3855 140.606 33.6112C140.723 33.3277 140.823 33.0379 140.908 32.7432C140.86 32.807 140.821 32.8773 140.792 32.952C140.727 33.0959 140.629 33.3048 140.518 33.5787C140.18 34.3518 139.953 35.1692 139.845 36.0062C139.782 36.5958 139.844 37.192 140.026 37.7562C140.289 38.3702 140.612 38.9564 140.991 39.5061C141.351 40.1223 141.488 40.8431 141.381 41.5484C141.274 42.3077 140.895 43.0022 140.314 43.5025C139.734 44.0317 139.028 44.4773 138.629 45.1828C138.3 45.853 138.091 46.5757 138.011 47.318C137.935 47.9668 137.739 48.5961 137.436 49.1746C137.152 49.6648 136.766 50.0876 136.303 50.4139C135.633 50.9004 134.833 51.1767 134.006 51.2077C133.421 51.2216 133.101 51.1288 133.096 51.1566Z" fill="#263238"/>
<path d="M119.552 28.9694C119.507 29.0233 119.479 29.0897 119.473 29.1597C119.463 29.26 119.474 29.3613 119.505 29.4572C119.536 29.5531 119.587 29.6414 119.654 29.7167C119.757 29.8404 119.884 29.9418 120.028 30.0144C120.172 30.087 120.329 30.1295 120.489 30.1391C120.904 30.1138 121.308 29.9931 121.668 29.7863C122.085 29.5537 122.548 29.4173 123.024 29.3872C123.577 29.3726 124.13 29.4224 124.672 29.5357C125.282 29.668 125.904 29.7472 126.528 29.7724C127.231 29.8003 127.916 29.5501 128.436 29.0762C128.902 28.582 129.274 28.0061 129.531 27.3773C129.769 26.8139 130.068 26.2784 130.423 25.7806C130.726 25.3733 131.141 25.0633 131.617 24.8885C132.094 24.7137 132.611 24.6818 133.105 24.7966C133.779 24.9757 134.359 25.4058 134.725 25.9988C134.854 26.2203 134.969 26.4497 135.069 26.6857C135.069 26.6857 135.069 26.6161 135.032 26.4861C134.981 26.2979 134.906 26.1169 134.809 25.9477C134.513 25.4009 134.037 24.9738 133.461 24.7393C132.885 24.5047 132.246 24.4774 131.653 24.662C131.098 24.8351 130.611 25.1775 130.26 25.6413C129.891 26.1499 129.58 26.6979 129.332 27.2752C129.083 27.8756 128.728 28.4259 128.283 28.8998C127.81 29.334 127.184 29.5627 126.542 29.5357C125.93 29.5121 125.322 29.4376 124.723 29.3129C124.164 29.202 123.593 29.1584 123.024 29.1829C122.524 29.2324 122.04 29.3908 121.608 29.6471C121.272 29.851 120.894 29.9778 120.503 30.0184C120.359 30.014 120.217 29.9809 120.085 29.9212C119.954 29.8614 119.836 29.7761 119.737 29.6703C119.673 29.6058 119.622 29.529 119.588 29.4445C119.554 29.36 119.537 29.2695 119.538 29.1783C119.552 29.0344 119.589 28.974 119.552 28.9694Z" fill="#455A64"/>
<path d="M122.183 27.6278C122.951 27.4516 123.635 27.0153 124.118 26.393C124.601 25.7707 124.854 25.0005 124.834 24.2129C124.814 23.4254 124.523 22.6688 124.01 22.0714C123.496 21.4739 122.792 21.0723 122.016 20.9346C121.65 20.8446 121.266 20.8567 120.906 20.9697C120.546 21.0826 120.223 21.292 119.974 21.5751C119.547 22.1553 119.575 23.0233 119.046 23.4968C118.516 23.9702 117.57 23.7845 116.818 23.9609C116.241 24.1253 115.742 24.489 115.409 24.9871C115.076 25.4852 114.93 26.0855 114.998 26.6809C115.093 27.2728 115.341 27.8295 115.718 28.2954C116.095 28.7613 116.588 29.1201 117.147 29.336C118.28 29.7493 119.518 29.7722 120.666 29.4009C121.803 29.0321 122.884 28.5072 123.878 27.8413" fill="#263238"/>
<path d="M116.59 24.2626C116.635 24.57 116.751 24.8627 116.929 25.1167C117.316 25.761 117.85 26.3037 118.489 26.6995C119.127 27.0979 119.851 27.3397 120.601 27.405C120.912 27.4531 121.229 27.4293 121.529 27.3354C121.529 27.2936 121.176 27.3354 120.633 27.2333C119.923 27.1255 119.243 26.8744 118.633 26.4953C118.025 26.1128 117.499 25.6126 117.087 25.0239C116.767 24.5736 116.628 24.2487 116.59 24.2626Z" fill="#455A64"/>
<path d="M119.051 29.4103C119.649 28.6222 120.399 27.9621 121.257 27.4694C122.115 26.9766 123.063 26.6612 124.045 26.5417C123.752 26.4848 123.451 26.4848 123.158 26.5417C121.721 26.7525 120.417 27.5006 119.51 28.6351C119.305 28.8588 119.148 29.1228 119.051 29.4103V29.4103Z" fill="#FF725E"/>
<path d="M152.874 79.9626L160.398 78.5051L159.043 80.4314L162.255 82.0374L164.943 80.7795C164.734 81.3287 164.471 81.8557 164.158 82.3531C163.569 83.3324 162.766 84.1215 162.274 84.1587C162.109 84.8366 161.766 85.4583 161.28 85.9596C160.844 86.395 160.301 86.7094 159.706 86.8721C159.112 87.0349 158.485 87.0403 157.887 86.888L152.832 85.0591L152.874 79.9626Z" fill="#FFBE9D"/>
<path d="M160.463 83.7363C160.588 83.892 160.745 84.0181 160.924 84.1056C161.103 84.1931 161.299 84.2398 161.498 84.2422C161.694 84.283 161.896 84.2813 162.09 84.2372C162.285 84.1932 162.468 84.1078 162.626 83.9869C162.598 83.9173 162.12 84.0751 161.526 83.9869C160.932 83.8988 160.5 83.676 160.463 83.7363Z" fill="#F05A22"/>
<path d="M159.47 85.3378C159.424 85.3842 159.749 85.7463 160.305 85.8901C160.467 85.9527 160.64 85.9785 160.813 85.9656C160.985 85.9528 161.153 85.9016 161.303 85.8159C161.303 85.7463 160.839 85.788 160.375 85.6581C159.911 85.5281 159.526 85.2867 159.47 85.3378Z" fill="#F05A22"/>
<path d="M157.581 79.6702C157.786 79.8186 158.006 79.9476 158.235 80.0554C158.639 80.2829 159.164 80.6635 159.753 81.0719C160.258 81.4379 160.819 81.7186 161.415 81.9028C161.661 81.9955 161.927 82.0195 162.185 81.9724C162.185 81.9353 161.898 81.9028 161.466 81.7403C160.908 81.512 160.379 81.2208 159.888 80.8724C159.389 80.5093 158.863 80.185 158.314 79.9022C158.091 79.7698 157.84 79.6904 157.581 79.6702V79.6702Z" fill="#F05A22"/>
<path d="M111.939 92.4534C111.939 92.4534 111.684 92.6158 111.044 93.753C109.08 97.2575 108.286 105.654 115.685 113.151C125.256 122.833 136.466 138.68 136.466 138.68L145.285 175.887L158.579 173.005L151.728 134.335L132.943 99.4855L111.939 92.4534Z" fill="#263238"/>
<path d="M97.2763 164.464L117.755 133.123L123.966 106.072L139.785 113.847L131.852 141.302L106.541 172.828L97.2763 164.464Z" fill="#263238"/>
<path d="M145.276 175.887C145.273 175.824 145.262 175.762 145.243 175.702C145.215 175.572 145.178 175.395 145.132 175.168C145.02 174.704 144.867 174.003 144.668 173.121L142.927 165.611C141.437 159.261 139.381 150.511 137.106 140.847C136.93 140.095 136.754 139.348 136.587 138.652V138.619C130.785 131.193 125.498 124.625 121.608 119.96C119.658 117.639 118.066 115.782 116.938 114.511C116.386 113.875 115.931 113.401 115.629 113.076L115.286 112.71C115.207 112.626 115.165 112.584 115.161 112.589C115.192 112.637 115.228 112.682 115.267 112.724L115.597 113.104C115.885 113.443 116.326 113.926 116.873 114.571C117.978 115.847 119.547 117.723 121.478 120.067C125.335 124.759 130.599 131.346 136.396 138.768V138.721C136.559 139.418 136.735 140.165 136.916 140.917L142.76 165.652C143.526 168.804 144.152 171.362 144.575 173.144C144.793 174.017 144.96 174.704 145.081 175.177C145.137 175.404 145.183 175.576 145.215 175.706C145.23 175.768 145.25 175.829 145.276 175.887V175.887Z" fill="#455A64"/>
<path d="M121.26 102.344C121.354 102.423 121.463 102.483 121.58 102.521C121.887 102.654 122.205 102.758 122.532 102.832C123.617 103.079 124.747 103.046 125.816 102.735C126.885 102.424 127.857 101.845 128.64 101.054C128.876 100.816 129.09 100.559 129.281 100.284C129.41 100.084 129.471 99.9679 129.457 99.9586C129.443 99.9494 129.132 100.367 128.529 100.929C127.74 101.662 126.791 102.201 125.757 102.502C124.723 102.804 123.633 102.859 122.573 102.665C121.752 102.516 121.274 102.307 121.26 102.344Z" fill="#455A64"/>
<path d="M109.967 94.0591C117.978 98.2784 130.98 100.799 135.138 99.086L135.282 83.6525C135.282 83.6525 140.978 74.2624 141.001 70.7116C141.033 65.6058 134.66 53.9227 134.66 53.9227L125.094 51.3559C123.168 51.3148 121.262 51.7585 119.552 52.6463C117.763 53.6377 116.307 55.1363 115.368 56.9535C114.429 58.7706 114.048 60.825 114.274 62.8579L116.683 78.2125L109.967 94.0591Z" fill="#FF725E"/>
<g opacity="0.3">
<path opacity="0.3" d="M120.234 52.6324C119.677 52.5489 119.473 53.454 119.867 53.8532C120.262 54.2523 120.889 54.2709 121.441 54.3545C123.934 54.7444 125.86 56.8795 126.765 59.2328C127.67 61.5862 127.758 64.1576 127.907 66.6595C128.055 69.1613 128.301 71.7653 129.485 73.9979C130.59 72.0388 131.245 69.8581 131.402 67.6142C131.56 65.3704 131.216 63.1196 130.395 61.0254C129.574 58.9311 128.297 57.046 126.657 55.5067C125.016 53.9675 123.054 52.8128 120.912 52.1265" fill="black"/>
</g>
<path d="M119.552 52.6464C119.552 52.6464 120.944 50.3766 125.549 51.3606C128.631 52.0197 135.371 58.4948 133.491 68.8968C131.611 79.2987 126.57 82.9842 126.57 82.9842C126.57 82.9842 131.212 67.0587 128.631 60.1101C127.955 58.1484 126.749 56.4124 125.146 55.0948C123.544 53.7772 121.607 52.9297 119.552 52.6464Z" fill="#263238"/>
<g opacity="0.3">
<path opacity="0.3" d="M135.106 86.9296C133.198 87.5423 131.369 88.3221 129.383 88.5728C127.395 88.899 125.356 88.6858 123.478 87.9554C120.93 86.8693 119.036 84.5484 118.062 81.9538C117.087 79.3591 116.952 76.5184 117.212 73.7566C118.953 75.9103 118.744 79.0991 120.225 81.4432C121.153 82.9053 122.662 83.9033 124.212 84.6923C127.604 86.3234 131.345 87.0964 135.106 86.9435" fill="black"/>
</g>
<path d="M129.369 71.1619C129.369 71.1619 129.991 82.8774 115.699 80.5473L114.26 83.9357C114.26 83.9357 129.285 87.1106 131.434 74.6524L129.369 71.1619Z" fill="#263238"/>
<path d="M116.344 56.6011C115.743 57.4948 115.338 58.5057 115.155 59.5674C114.973 60.6291 115.017 61.7173 115.286 62.7605L118.846 78.6953C120.373 83.1792 124.732 85.9038 127.442 86.2659L152.828 88.9534V79.4798L129.262 75.98L128.157 63.0762C128.06 61.3402 127.206 58.221 126.101 56.8749C124.866 55.3757 122.968 53.3333 119.867 53.8532C117.969 54.1688 117.161 55.436 116.344 56.6011Z" fill="#FF725E"/>
<path d="M115.611 63.3826C115.607 63.5022 115.615 63.6219 115.634 63.74C115.662 63.9767 115.704 64.3202 115.764 64.7658C115.885 65.657 116.071 66.9381 116.354 68.5162C116.637 70.0944 116.999 71.9743 117.477 74.0398C117.714 75.0703 117.969 76.1564 118.28 77.289C118.584 78.4486 119.001 79.5757 119.524 80.6542C120.053 81.7389 120.78 82.715 121.668 83.532C122.496 84.2894 123.436 84.9156 124.453 85.3887C126.179 86.1621 128.023 86.6406 129.907 86.8044C131.509 86.9668 132.808 86.9761 133.704 86.9854H134.739C134.858 86.9962 134.978 86.9962 135.097 86.9854C134.979 86.9644 134.859 86.9551 134.739 86.9575L133.709 86.9158C132.813 86.8786 131.513 86.8415 129.926 86.6558C128.067 86.4723 126.251 85.983 124.551 85.2076C123.553 84.7464 122.631 84.136 121.817 83.3974C120.954 82.594 120.246 81.639 119.728 80.5799C119.213 79.5153 118.802 78.404 118.498 77.2611C118.187 76.1564 117.927 75.0749 117.681 74.0445C117.217 71.9836 116.809 70.1176 116.512 68.5441C116.214 66.9706 115.996 65.6941 115.848 64.8308C115.773 64.4084 115.718 64.0695 115.676 63.8142C115.665 63.6689 115.644 63.5246 115.611 63.3826V63.3826Z" fill="#263238"/>
<path d="M128.58 78.6954C128.844 78.2652 129.037 77.7949 129.151 77.3029C129.344 76.8406 129.46 76.3499 129.494 75.8501C129.036 76.7367 128.722 77.6911 128.566 78.6769L128.58 78.6954Z" fill="#263238"/>
<path d="M127.136 78.3333C127.638 78.0983 128.08 77.7542 128.431 77.3261C128.839 76.9538 129.156 76.4934 129.359 75.98C128.963 76.35 128.591 76.7454 128.246 77.1636C127.849 77.5276 127.479 77.9184 127.136 78.3333V78.3333Z" fill="#263238"/>
<path d="M150.618 79.1549L150.512 79.1271L150.196 79.0667L148.98 78.8671L144.464 78.157L129.299 75.864L129.401 75.9707C129.318 75.0888 129.23 74.1605 129.137 73.2136C128.835 69.867 128.515 66.6781 128.357 63.7678C128.247 62.3841 127.982 61.0171 127.568 59.6925C127.235 58.5198 126.67 57.4259 125.906 56.4758C124.402 54.8373 122.717 53.9693 121.478 53.8115C121.005 53.7441 120.524 53.7535 120.053 53.8393C119.895 53.8718 119.775 53.909 119.696 53.9322L119.575 53.9739C120.195 53.8317 120.836 53.8081 121.464 53.9043C122.671 54.0853 124.314 54.9626 125.776 56.5918C126.516 57.5272 127.059 58.6023 127.373 59.7528C127.778 61.0644 128.033 62.4175 128.134 63.7864C128.278 66.6967 128.598 69.8902 128.9 73.2368C128.988 74.1651 129.076 75.0935 129.165 75.9939V76.0868H129.258L144.454 78.3055L148.98 78.9368L150.205 79.0992L150.521 79.1364L150.618 79.1549Z" fill="#263238"/>
<path d="M136.09 86.8741C136.155 86.8741 136.424 84.7343 136.689 82.0839C136.953 79.4335 137.116 77.2705 137.051 77.2612C136.767 78.848 136.565 80.4484 136.447 82.0561C136.246 83.6549 136.126 85.263 136.09 86.8741V86.8741Z" fill="#FAFAFA"/>
<path d="M117.505 72.4894C118.042 72.5356 118.582 72.5434 119.12 72.5126C120.118 72.5126 121.492 72.4569 123.014 72.4012C124.537 72.3455 125.911 72.2805 126.904 72.2202C127.442 72.2115 127.979 72.1634 128.51 72.0763C127.973 72.0236 127.433 72.0143 126.895 72.0484C125.902 72.0484 124.523 72.1041 123.005 72.1598C121.487 72.2155 120.113 72.2805 119.115 72.3409C118.575 72.3473 118.037 72.397 117.505 72.4894V72.4894Z" fill="#FAFAFA"/>
<path d="M133.621 69.4586C133.965 69.5471 134.319 69.5939 134.674 69.5978C135.324 69.6442 136.229 69.6767 137.227 69.6581C138.225 69.6396 139.13 69.57 139.78 69.4957C140.134 69.4799 140.485 69.4191 140.824 69.3147C140.473 69.2799 140.118 69.2799 139.766 69.3147C139.116 69.3472 138.216 69.3843 137.223 69.4029C136.229 69.4214 135.329 69.4029 134.679 69.4029C134.325 69.3823 133.97 69.401 133.621 69.4586V69.4586Z" fill="#FAFAFA"/>
<path d="M131.523 58.4486C131.56 58.509 132.535 57.9845 133.797 57.5203C135.06 57.0561 136.118 56.773 136.118 56.7034C134.468 56.9048 132.891 57.5037 131.523 58.4486V58.4486Z" fill="#FAFAFA"/>
<path d="M113.086 87.4077C113.15 87.4533 113.22 87.4893 113.295 87.5145L113.908 87.7651C114.437 87.9833 115.217 88.2711 116.187 88.6099C118.718 89.4816 121.295 90.2161 123.906 90.81C126.516 91.4179 129.158 91.8828 131.82 92.2025C132.841 92.3186 133.676 92.3975 134.243 92.4346L134.902 92.4718C134.979 92.484 135.057 92.484 135.134 92.4718C135.061 92.4462 134.984 92.4306 134.906 92.4253L134.252 92.3418C133.681 92.2768 132.859 92.1747 131.838 92.0355C129.81 91.757 127.011 91.2974 123.948 90.6012C120.884 89.9049 118.178 89.0973 116.228 88.4614C115.254 88.1457 114.465 87.8812 113.908 87.6909L113.281 87.482C113.218 87.4513 113.153 87.4264 113.086 87.4077V87.4077Z" fill="#FAFAFA"/>
<path d="M114.599 59.6508C114.599 59.7158 117.338 59.6833 120.712 59.5719C124.087 59.4605 126.816 59.3213 126.816 59.2563C126.816 59.1913 124.077 59.2238 120.703 59.3306C117.328 59.4373 114.599 59.5812 114.599 59.6508Z" fill="#FAFAFA"/>
<path d="M147.309 88.2525C147.487 86.7115 147.587 85.1622 147.606 83.6109C147.707 82.0658 147.725 80.5163 147.661 78.9692C147.483 80.5103 147.384 82.0596 147.364 83.6109C147.264 85.156 147.245 86.7054 147.309 88.2525Z" fill="#FAFAFA"/>
<path d="M199.235 40.7824C195.103 40.0152 190.836 40.4635 186.953 42.0727C185.231 42.7922 183.523 43.8087 182.595 45.4287C181.49 47.341 181.666 49.699 181.792 51.9038C182.035 56.3956 181.879 60.9001 181.328 65.3646C180.863 69.0779 180.135 72.7912 180.149 76.5045C180.163 80.2179 180.998 84.1261 183.342 87.0411C186.958 91.5296 193.396 92.7921 199.124 92.0262C202.132 91.627 205.135 90.7266 207.59 88.9349C210.046 87.1432 211.884 84.3814 212.093 81.3551" fill="#455A64"/>
<path d="M192.078 46.4731C191.542 47.1064 191.087 47.8032 190.722 48.548C190.346 49.3682 190.035 50.2172 189.794 51.087C189.504 52.1654 189.146 53.2242 188.722 54.2572C188.28 55.308 187.592 56.2375 186.717 56.9679C185.987 57.5679 185.071 57.896 184.126 57.8963C183.499 57.9024 182.883 57.7267 182.353 57.3903C182.212 57.2969 182.082 57.1862 181.968 57.0608C181.889 56.9772 181.852 56.9262 181.861 56.9215C181.871 56.9169 182.047 57.0747 182.418 57.2882C182.944 57.5754 183.538 57.7135 184.136 57.6874C185.024 57.66 185.876 57.3328 186.554 56.7591C187.38 56.0468 188.028 55.1521 188.448 54.1458C188.87 53.1248 189.233 52.0802 189.534 51.0173C189.79 50.139 190.122 49.2848 190.527 48.4644C190.806 47.9109 191.157 47.3973 191.572 46.9373C191.713 46.7549 191.884 46.5979 192.078 46.4731V46.4731Z" fill="#263238"/>
<path d="M190.439 91.7385C190.404 91.6206 190.38 91.4992 190.37 91.3765C190.332 91.1041 190.286 90.7514 190.23 90.3182C190.114 89.3898 189.961 88.0716 189.766 86.4285C189.418 83.1375 189 78.5887 188.638 73.5571C188.276 68.5256 188.058 63.9582 187.937 60.6487C187.877 58.9963 187.84 57.6595 187.826 56.7358C187.826 56.2995 187.826 55.9467 187.826 55.6728C187.812 55.5495 187.812 55.4249 187.826 55.3015C187.852 55.4221 187.866 55.5449 187.868 55.6682C187.868 55.9467 187.91 56.2948 187.937 56.7311C187.988 57.692 188.058 59.0195 188.146 60.6394C188.323 63.9443 188.583 68.5024 188.935 73.5339C189.288 78.5655 189.683 83.1143 189.975 86.4052C190.119 88.0252 190.235 89.3481 190.319 90.3042C190.356 90.7406 190.384 91.0933 190.402 91.3672C190.429 91.4891 190.441 91.6137 190.439 91.7385V91.7385Z" fill="#263238"/>
<path d="M188.606 71.5797C188.606 71.6586 186.814 71.9092 184.572 71.9649C182.33 72.0206 180.52 71.8721 180.525 71.7886C180.529 71.705 182.335 71.7189 184.563 71.6586C186.791 71.5983 188.597 71.4915 188.606 71.5797Z" fill="#263238"/>
<path d="M187.148 71.7795C187.33 72.022 187.456 72.3006 187.52 72.5965C187.62 72.9003 187.701 73.2104 187.761 73.5248C187.812 73.7321 187.812 73.9487 187.761 74.1561C187.726 74.2825 187.656 74.3966 187.559 74.4852C187.462 74.5738 187.342 74.6335 187.213 74.6574C187.141 74.6685 187.066 74.6634 186.996 74.6426C186.925 74.6217 186.86 74.5856 186.805 74.5367C186.706 74.448 186.639 74.3288 186.615 74.1978C186.582 73.9949 186.582 73.7881 186.615 73.5851C186.647 73.2584 186.709 72.9352 186.8 72.6197C186.855 72.3198 186.979 72.0369 187.162 71.7935C187.144 72.0907 187.093 72.3849 187.009 72.6707C186.953 72.9777 186.916 73.2877 186.898 73.5991C186.872 73.7714 186.872 73.9466 186.898 74.1189C186.935 74.2767 187.032 74.3649 187.158 74.3464C187.478 74.2907 187.548 73.8822 187.483 73.5619C187.418 73.2417 187.367 72.8889 187.311 72.6336C187.221 72.3569 187.166 72.0699 187.148 71.7795V71.7795Z" fill="#263238"/>
<path d="M203.478 41.9092L184.054 42.5502C181.597 42.6313 179.539 40.7052 179.458 38.2481L179.334 34.4718C179.252 32.0148 181.179 29.9572 183.636 29.8761L203.06 29.2351C205.517 29.1541 207.574 31.0802 207.655 33.5373L207.78 37.3135C207.861 39.7706 205.935 41.8282 203.478 41.9092Z" fill="#263238"/>
<path d="M184.099 30.1158C184.099 30.1158 184.15 30.0694 184.266 30.0137C184.438 29.9331 184.621 29.8768 184.809 29.8466C185.51 29.7415 186.226 29.8756 186.842 30.2272C187.777 30.6906 188.57 31.3958 189.14 32.2696C189.794 33.3621 190.169 34.5993 190.23 35.8715C190.353 37.1469 190.093 38.4299 189.483 39.557C188.982 40.4778 188.215 41.2266 187.283 41.7061C186.663 42.0281 185.98 42.2088 185.282 42.2352C185.093 42.2431 184.904 42.2338 184.716 42.2074C184.65 42.2056 184.585 42.1898 184.526 42.1609C184.526 42.1331 184.795 42.1609 185.273 42.1145C185.944 42.0459 186.593 41.8405 187.181 41.5111C188.056 41.0308 188.771 40.3046 189.237 39.4224C189.804 38.3381 190.042 37.1124 189.924 35.8947C189.865 34.6712 189.515 33.4794 188.903 32.4181C188.365 31.5769 187.62 30.888 186.74 30.4175C186.165 30.0659 185.495 29.9035 184.823 29.9534C184.349 30.0044 184.108 30.1437 184.099 30.1158Z" fill="#455A64"/>
<path d="M195.03 29.4475L192.078 29.596C192.889 29.7203 193.629 30.1321 194.162 30.7565C194.688 31.3778 195.076 32.1041 195.299 32.887C196.325 36.1361 195.086 40.0258 192.514 42.2678L194.905 42.2306C194.905 42.2306 200.721 35.2124 195.049 29.4475" fill="#455A64"/>
<path d="M209.456 23.8868C210.663 20.9672 210.728 15.8985 208.885 13.211C207.042 10.5235 203.589 8.78285 200.419 8.10517C199.897 7.94476 199.339 7.94476 198.817 8.10517C198.563 8.20079 198.354 8.38848 198.232 8.63098C198.11 8.87348 198.084 9.15303 198.158 9.41411C197.542 8.99121 196.86 8.6743 196.139 8.4765C195.777 8.37418 195.395 8.36301 195.027 8.44399C194.66 8.52497 194.318 8.69559 194.032 8.94067C193.894 9.06672 193.783 9.21919 193.706 9.389C193.628 9.55881 193.585 9.7425 193.58 9.92914C193.575 10.1158 193.607 10.3016 193.675 10.4754C193.743 10.6493 193.846 10.8077 193.976 10.9412C193.529 10.7756 193.044 10.745 192.58 10.8534C192.116 10.9617 191.694 11.2042 191.367 11.5506C191.04 11.897 190.822 12.332 190.74 12.8014C190.659 13.2708 190.717 13.7539 190.908 14.1904C191.342 15.0843 191.944 15.8864 192.681 16.553C193.345 17.1657 193.456 17.7969 193.345 18.6928" fill="#263238"/>
<path d="M208.7 18.5351L209.535 36.3962C209.57 37.1161 209.457 37.8355 209.205 38.5107C208.953 39.1859 208.566 39.8027 208.068 40.3237C207.57 40.8447 206.972 41.259 206.309 41.5414C205.645 41.8237 204.932 41.9682 204.211 41.9661C202.847 41.9592 201.537 41.4283 200.553 40.4832C199.569 39.5381 198.986 38.2511 198.924 36.8882C198.864 35.5421 198.808 34.4188 198.794 34.2842C198.794 34.2842 194.227 34.0707 193.688 29.5869C193.428 27.4192 193.252 22.9122 193.145 18.8321C193.089 16.7189 193.83 14.662 195.222 13.0707C196.614 11.4795 198.554 10.4707 200.656 10.2451L201.087 10.1987C205.775 9.96658 208.597 13.8284 208.7 18.5351Z" fill="#FFBE9D"/>
<path d="M198.766 34.219C200.843 34.0355 202.818 33.2372 204.438 31.926C204.438 31.926 203.543 34.7342 199.022 34.8131L198.766 34.219Z" fill="#F05A22"/>
<path d="M194.747 21.6958C194.763 21.8638 194.845 22.0186 194.974 22.127C195.103 22.2355 195.27 22.289 195.438 22.276C195.52 22.2737 195.601 22.2549 195.676 22.2207C195.751 22.1865 195.818 22.1376 195.873 22.077C195.928 22.0164 195.971 21.9452 195.999 21.8678C196.026 21.7904 196.037 21.7082 196.032 21.6262C196.016 21.4591 195.935 21.3051 195.807 21.1967C195.678 21.0884 195.513 21.0343 195.345 21.046C195.263 21.049 195.183 21.0682 195.108 21.1025C195.033 21.1369 194.966 21.1857 194.911 21.2461C194.855 21.3065 194.812 21.3774 194.784 21.4546C194.756 21.5318 194.743 21.6138 194.747 21.6958V21.6958Z" fill="#263238"/>
<path d="M194.334 20.9299C194.422 21.0042 194.867 20.5957 195.559 20.5215C196.251 20.4472 196.789 20.7396 196.854 20.6468C196.919 20.554 196.794 20.4611 196.552 20.3265C196.232 20.1528 195.866 20.0815 195.503 20.1223C195.144 20.1601 194.806 20.3113 194.538 20.554C194.343 20.7211 194.282 20.8974 194.334 20.9299Z" fill="#263238"/>
<path d="M201.556 21.1854C201.572 21.3525 201.653 21.5066 201.782 21.6149C201.91 21.7232 202.075 21.7773 202.243 21.7656C202.325 21.7626 202.406 21.7434 202.48 21.7091C202.555 21.6747 202.622 21.6259 202.678 21.5655C202.733 21.5051 202.777 21.4342 202.805 21.3571C202.833 21.2799 202.845 21.1979 202.842 21.1158C202.826 20.9482 202.746 20.7934 202.617 20.6849C202.489 20.5763 202.322 20.5227 202.155 20.5356C202.072 20.5373 201.991 20.5557 201.916 20.5896C201.84 20.6235 201.773 20.6723 201.717 20.733C201.661 20.7936 201.618 20.865 201.59 20.9428C201.563 21.0205 201.551 21.103 201.556 21.1854Z" fill="#263238"/>
<path d="M201.129 20.3264C201.217 20.4007 201.663 19.9922 202.354 19.918C203.046 19.8437 203.589 20.1361 203.654 20.0433C203.719 19.9505 203.589 19.8623 203.352 19.723C203.03 19.5497 202.663 19.4785 202.299 19.5188C201.94 19.5588 201.602 19.7097 201.333 19.9505C201.143 20.1361 201.087 20.2939 201.129 20.3264Z" fill="#263238"/>
<path d="M199.175 25.7155C198.8 25.6378 198.416 25.6097 198.033 25.632C197.857 25.632 197.685 25.632 197.643 25.502C197.607 25.3222 197.628 25.1355 197.704 24.9682L198.079 23.5757C198.599 21.5891 198.952 19.9599 198.873 19.9413C198.794 19.9228 198.307 21.5148 197.787 23.5061C197.666 23.9703 197.546 24.4623 197.434 24.8986C197.352 25.1251 197.352 25.373 197.434 25.5995C197.465 25.6595 197.51 25.7113 197.565 25.7508C197.62 25.7903 197.683 25.8164 197.75 25.8269C197.85 25.8405 197.952 25.8405 198.052 25.8269C198.429 25.839 198.807 25.8015 199.175 25.7155V25.7155Z" fill="#263238"/>
<path d="M201.245 25.9754C201.134 25.9754 201.213 26.7274 200.628 27.3308C200.043 27.9342 199.235 27.9342 199.235 28.041C199.235 28.1477 199.426 28.1663 199.765 28.1385C200.205 28.0984 200.616 27.9025 200.925 27.5861C201.221 27.2852 201.388 26.8804 201.389 26.4582C201.412 26.1425 201.31 25.9662 201.245 25.9754Z" fill="#263238"/>
<path d="M200.66 17.6436C200.748 17.8246 201.426 17.6436 202.248 17.6715C203.069 17.6993 203.747 17.8293 203.835 17.6715C203.872 17.5833 203.742 17.4208 203.459 17.2676C203.084 17.0778 202.668 16.9807 202.248 16.9845C201.828 16.9805 201.413 17.0742 201.036 17.2584C200.753 17.393 200.618 17.5554 200.66 17.6436Z" fill="#263238"/>
<path d="M194.371 18.9064C194.51 19.0503 194.965 18.8368 195.536 18.7671C196.107 18.6975 196.603 18.7671 196.696 18.5815C196.738 18.4979 196.645 18.3494 196.418 18.2241C196.117 18.0817 195.781 18.0304 195.451 18.0766C195.121 18.1227 194.812 18.2644 194.561 18.484C194.357 18.665 194.311 18.8368 194.371 18.9064Z" fill="#263238"/>
<path d="M208.672 21.9003C208.746 21.8585 211.656 20.6563 211.893 23.7337C212.13 26.8112 208.983 26.4166 208.973 26.3284C208.964 26.2402 208.672 21.9003 208.672 21.9003Z" fill="#FFBE9D"/>
<path d="M209.841 25.0891C209.841 25.0891 209.897 25.1216 209.994 25.1587C210.123 25.2085 210.265 25.2085 210.394 25.1587C210.583 25.0173 210.732 24.8279 210.824 24.6101C210.916 24.3923 210.949 24.1539 210.918 23.9194C210.905 23.6549 210.834 23.3965 210.709 23.1628C210.673 23.0695 210.615 22.9862 210.54 22.92C210.465 22.8538 210.375 22.8065 210.278 22.7822C210.214 22.7703 210.149 22.7811 210.093 22.8125C210.037 22.8439 209.994 22.8939 209.971 22.9539C209.934 23.0421 209.971 23.1024 209.943 23.1071C209.916 23.1117 209.874 23.0607 209.888 22.9353C209.9 22.8576 209.938 22.7859 209.994 22.7311C210.075 22.66 210.18 22.6233 210.287 22.629C210.415 22.6446 210.537 22.6929 210.641 22.7694C210.745 22.8458 210.828 22.9477 210.881 23.0653C211.034 23.3216 211.12 23.612 211.132 23.9101C211.169 24.1832 211.125 24.4613 211.004 24.7092C210.884 24.9571 210.692 25.1636 210.454 25.3026C210.373 25.3334 210.285 25.3456 210.199 25.3383C210.112 25.3311 210.028 25.3046 209.953 25.2608C209.855 25.1633 209.832 25.0937 209.841 25.0891Z" fill="#F05A22"/>
<path d="M190.722 13.1691C190.667 17.1887 195.712 18.4791 197.685 16.084C198.613 14.9747 199.379 13.6146 200.702 13.0484C201.155 12.8725 201.638 12.7889 202.123 12.8024C202.609 12.816 203.087 12.9264 203.529 13.1273H203.557C204.875 13.6889 205.738 15.1 206.044 16.5018C206.467 18.4559 206.286 20.2151 206.936 21.9928C207.003 22.2593 207.156 22.4961 207.372 22.6659C207.762 22.9026 208.3 22.6287 208.565 22.2621C208.971 21.6395 209.185 20.9118 209.182 20.1687C209.325 18.4889 209.133 16.7975 208.616 15.1928C208.091 13.5839 207.107 12.1639 205.785 11.1082C204.08 9.84991 201.953 9.30243 199.853 9.58105C197.759 9.87352 195.81 10.817 194.283 12.2779C193.544 12.9207 192.978 13.7375 192.635 14.6544" fill="#263238"/>
<path d="M193.818 10.7229C193.674 10.7037 193.527 10.7212 193.391 10.774C193.014 10.9004 192.679 11.1304 192.426 11.4377C192.035 11.8846 191.806 12.4505 191.776 13.0438C191.771 13.7756 192.037 14.4835 192.523 15.0304C192.991 15.5771 193.602 15.9823 194.287 16.2001C194.839 16.3768 195.416 16.4599 195.995 16.4461C196.382 16.4391 196.767 16.3987 197.146 16.3254C197.289 16.3117 197.428 16.2707 197.555 16.2047C197.555 16.1629 196.956 16.2976 196 16.279C195.441 16.2682 194.887 16.1728 194.357 15.9958C193.716 15.7766 193.146 15.3904 192.704 14.8772C192.256 14.3744 192.006 13.7264 191.999 13.053C192.013 12.5033 192.207 11.9735 192.551 11.5445C192.781 11.2507 193.083 11.0219 193.429 10.8807C193.665 10.7601 193.818 10.7461 193.818 10.7229Z" fill="#455A64"/>
<path d="M195.768 9.1541C195.768 9.1541 195.652 9.12625 195.476 9.22837C195.358 9.30593 195.258 9.40852 195.184 9.52886C195.111 9.6492 195.064 9.78432 195.049 9.92462C195.018 10.3375 195.133 10.7478 195.373 11.085C195.627 11.4995 195.94 11.8747 196.302 12.199C196.962 12.7939 197.759 13.2151 198.623 13.4244C198.972 13.533 199.34 13.5678 199.704 13.5265C199.704 13.4801 199.296 13.4616 198.669 13.262C197.856 13.0135 197.106 12.5906 196.474 12.0226C196.126 11.7131 195.818 11.3606 195.559 10.9736C195.336 10.6784 195.215 10.3181 195.216 9.94783C195.223 9.82551 195.255 9.70593 195.309 9.59599C195.364 9.48605 195.439 9.38793 195.531 9.30728C195.675 9.19588 195.773 9.17267 195.768 9.1541Z" fill="#455A64"/>
<path d="M208.82 53.013L207.377 42.4578L228.12 46.6353L246.998 40.0767L252.099 45.3217L232.01 55.668C230.218 56.5237 228.199 56.7824 226.25 56.406L208.82 53.013Z" fill="#FFBE9D"/>
<path d="M246.998 40.0769C246.998 40.0769 254.216 36.6235 254.68 36.5028C255.037 36.41 260.486 36.1222 262.97 35.9922C263.164 35.9906 263.353 36.0618 263.497 36.1918C263.642 36.3219 263.733 36.5014 263.752 36.6951C263.771 36.8888 263.718 37.0826 263.601 37.2386C263.485 37.3945 263.314 37.5013 263.123 37.5379H263.03C261.638 37.6539 258.593 38.3502 258.593 38.3502L259.985 41.5993C260.053 41.7603 260.064 41.9393 260.018 42.1076C259.972 42.2759 259.87 42.4238 259.73 42.5277L255.529 45.6329C254.979 45.883 254.373 45.9838 253.772 45.9251C253.17 45.8665 252.595 45.6504 252.104 45.2987L250.247 45.6794L246.998 40.0769Z" fill="#FFBE9D"/>
<path d="M259.999 41.8036C259.869 42.4116 258.421 43.6602 257.321 43.6602C257.078 43.6642 256.842 43.5801 256.657 43.4235C256.569 43.3412 256.508 43.2346 256.48 43.1172C256.453 42.9999 256.461 42.8771 256.504 42.7644C256.581 42.6257 256.691 42.5079 256.824 42.4209L259.266 40.5039" fill="#FFBE9D"/>
<path d="M259.266 40.5039C258.902 40.6984 258.558 40.9286 258.24 41.1909L257.168 41.9939C256.963 42.1517 256.759 42.2863 256.536 42.4905C256.472 42.55 256.421 42.6218 256.385 42.7015C256.349 42.7812 256.33 42.8673 256.328 42.9547C256.327 43.1234 256.384 43.2873 256.49 43.4189C256.597 43.5391 256.73 43.633 256.879 43.6934C257.028 43.7538 257.188 43.7789 257.349 43.767C257.626 43.7529 257.899 43.6867 258.152 43.572C258.572 43.391 258.959 43.1416 259.298 42.834C259.529 42.6301 259.728 42.3922 259.888 42.1285C259.994 41.9335 259.999 41.8036 259.985 41.8036C259.971 41.8036 259.934 41.9103 259.809 42.0774C259.627 42.3105 259.419 42.5209 259.187 42.7041C258.848 42.9789 258.472 43.2025 258.068 43.3678C257.837 43.4648 257.59 43.5198 257.339 43.5303C257.217 43.5395 257.094 43.521 256.98 43.476C256.866 43.4309 256.763 43.3606 256.68 43.2703C256.606 43.1856 256.565 43.0767 256.565 42.964C256.565 42.8512 256.606 42.7423 256.68 42.6576C256.857 42.4905 257.093 42.3281 257.279 42.1935L258.337 41.3255C258.675 41.0857 258.987 40.8103 259.266 40.5039V40.5039Z" fill="#F05A22"/>
<path d="M254.16 43.6787C254.16 43.6787 254.322 43.5952 254.471 43.3631C254.665 43.055 254.774 42.7011 254.786 42.3373C254.805 41.9762 254.73 41.6164 254.568 41.2929C254.438 41.0469 254.308 40.9309 254.285 40.9494C254.442 41.3977 254.529 41.8673 254.545 42.3419C254.486 42.8047 254.356 43.2556 254.16 43.6787V43.6787Z" fill="#F05A22"/>
<path d="M257.056 42.0125C256.956 42.2012 256.794 42.3496 256.597 42.4326C256.4 42.5157 256.181 42.5282 255.976 42.4682C255.771 42.4082 255.593 42.2794 255.471 42.1033C255.35 41.9273 255.294 41.7148 255.311 41.5019C255.352 41.2432 255.446 40.9957 255.587 40.7746C255.727 40.5535 255.911 40.3635 256.128 40.2161L257.934 38.5823" fill="#FFBE9D"/>
<path d="M257.934 38.5637C257.66 38.7236 257.406 38.9152 257.177 39.1346L256.402 39.7984C256.064 40.0659 255.753 40.3659 255.474 40.6942C255.33 40.8818 255.234 41.1017 255.195 41.3348C255.158 41.5603 255.201 41.7916 255.316 41.9893C255.405 42.1567 255.539 42.2958 255.703 42.391C255.867 42.4861 256.054 42.5335 256.244 42.5277C256.493 42.5158 256.728 42.4115 256.903 42.2353C257.024 42.1099 257.052 42.0171 257.042 42.0125C257.033 42.0078 256.968 42.0728 256.843 42.1656C256.667 42.2922 256.456 42.359 256.239 42.356C256.088 42.3508 255.94 42.3051 255.812 42.2234C255.683 42.1418 255.579 42.0273 255.511 41.8918C255.432 41.7205 255.405 41.5301 255.433 41.3438C255.461 41.1575 255.543 40.9834 255.668 40.8428C255.935 40.5318 256.225 40.2416 256.536 39.9748L257.279 39.2693C257.528 39.0649 257.749 38.8275 257.934 38.5637V38.5637Z" fill="#F05A22"/>
<path d="M253.96 38.2898C255.417 38.6377 256.807 39.2193 258.077 40.0118C258.159 40.0515 258.223 40.119 258.258 40.2022C258.296 40.3228 258.203 40.4389 258.105 40.5178C257.705 40.7885 257.218 40.8994 256.741 40.8288C256.27 40.7538 255.796 40.7042 255.32 40.6802C254.494 40.6802 253.733 41.0933 252.935 41.3161C252.136 41.5389 251.171 41.5297 250.614 40.9077" fill="#FFBE9D"/>
<path d="M250.623 40.9077C250.623 40.9077 250.623 40.9541 250.697 41.0191C250.785 41.1141 250.887 41.1955 250.999 41.2605C251.424 41.4918 251.913 41.5782 252.392 41.5065C253.073 41.389 253.742 41.2055 254.388 40.9587C254.761 40.8422 255.152 40.7889 255.543 40.8009C255.952 40.8241 256.374 40.9263 256.838 40.9541C257.301 41.0083 257.768 40.8965 258.157 40.6385C258.269 40.5666 258.352 40.456 258.389 40.3275C258.407 40.2467 258.394 40.162 258.351 40.0908C258.315 40.0355 258.267 39.9882 258.212 39.9515C258.031 39.8355 257.864 39.7426 257.692 39.6452C257.098 39.3054 256.477 39.0151 255.836 38.7772C255.401 38.6148 254.956 38.48 254.504 38.3733C254.339 38.3229 254.169 38.2948 253.998 38.2898C253.998 38.3316 254.699 38.494 255.775 38.935C256.404 39.1941 257.015 39.4949 257.604 39.8355C257.767 39.9329 257.943 40.0397 258.101 40.1418C258.175 40.1975 258.198 40.23 258.184 40.2764C258.157 40.3483 258.107 40.4089 258.041 40.4482C257.694 40.6685 257.283 40.762 256.875 40.7127C256.444 40.6849 256.012 40.5874 255.58 40.5688C255.162 40.5566 254.744 40.6163 254.346 40.7452C253.714 40.9973 253.062 41.196 252.396 41.3394C251.952 41.4153 251.496 41.3605 251.083 41.1815C250.924 41.099 250.771 41.0076 250.623 40.9077Z" fill="#F05A22"/>
<path d="M227.8 50.2746C228.204 49.075 228.241 47.7821 227.907 46.5613C227.837 46.5613 227.907 47.4061 227.907 48.4179C227.907 49.4298 227.73 50.2607 227.8 50.2746Z" fill="#F05A22"/>
<path d="M209.646 37.5612L215.532 44.1942C215.532 44.1942 218.679 67.1007 218.902 68.9017C219.125 70.7027 219.723 76.449 219.723 78.0225C219.723 79.5961 221.028 90.8428 221.028 90.8428C221.028 90.8428 196.051 96.0322 191.869 90.8428L193.173 81.2114L192.041 57.3208C192.041 57.3208 190.184 40.7361 198.91 36.8975C198.924 36.8882 204.438 40.2163 209.646 37.5612Z" fill="#FF725E"/>
<path d="M194.9 39.2368C194.9 39.2368 196.622 37.5379 202.127 38.9629C207.924 40.4622 210.983 45.8883 209.554 61.2429C208.365 73.9146 203.357 75.7341 203.357 75.7341C203.357 75.7341 206.1 56.6244 205.627 48.6315C205.033 38.5359 194.909 41.047 194.909 41.047C193.461 40.5921 194.9 39.2368 194.9 39.2368Z" fill="#263238"/>
<path d="M209.646 37.5613L214.734 38.9631L226.18 45.972L222.921 56.3228L216.2 55.5848L209.646 37.5613Z" fill="#FF725E"/>
<path d="M216.27 44.7463C216.2 44.7463 216.493 48.4597 216.915 53.0085C217.338 57.5573 217.737 61.2614 217.802 61.2521C217.867 61.2428 217.579 57.5387 217.157 52.9899C216.734 48.4411 216.335 44.7417 216.27 44.7463Z" fill="#263238"/>
<path d="M192.969 76.9176C192.969 76.9176 194.594 82.1395 200.335 73.5153C206.077 64.8911 205.274 68.7483 205.274 68.7483L206.448 70.1408C206.448 70.1408 200.131 84.3675 193.043 82.1395L192.969 76.9176Z" fill="#263238"/>
<path opacity="0.3" d="M216.502 47.2344L221.028 56.1139L217.287 55.7054L216.502 47.2344Z" fill="black"/>
<g opacity="0.3">
<path opacity="0.3" d="M218.577 70.8093C215.246 74.4343 211.312 77.4543 206.95 79.7352C205.125 80.6914 203.106 81.5315 201.064 81.267C198.817 80.9792 196.886 79.3546 195.833 77.354C194.779 75.3535 194.904 74.388 194.668 72.1415C194.389 69.6628 194.389 66.3533 194.259 64.0928C194.259 63.6936 194.231 63.2295 194.231 62.7885C194.231 62.311 194.077 61.8463 193.792 61.4633C193.507 61.0803 193.106 60.7995 192.649 60.6626V60.6626C192.649 60.6626 194.041 60.0175 194.937 60.1474C195.833 60.2774 196.548 61.0433 197.026 61.8323C199.574 66.033 198.465 72.1925 203.324 74.829C204.931 75.6499 206.763 75.9191 208.537 75.5948C212.515 74.945 215.56 72.3457 218.493 69.7835" fill="black"/>
</g>
<path d="M213.081 62.1155C211.864 62.1155 210.876 59.1479 210.876 55.4872C210.876 51.8265 211.864 48.8589 213.081 48.8589C214.299 48.8589 215.286 51.8265 215.286 55.4872C215.286 59.1479 214.299 62.1155 213.081 62.1155Z" fill="#FAFAFA"/>
<path d="M211.921 170.767L211.415 181.68C211.415 181.68 222.337 185.857 222.443 187.886L201.25 187.668L201.338 170.633L211.921 170.767Z" fill="#FF725E"/>
<g opacity="0.6">
<path opacity="0.6" d="M204.852 180.696C204.648 180.756 204.473 180.89 204.361 181.07C204.249 181.251 204.207 181.466 204.243 181.675C204.296 181.882 204.426 182.061 204.607 182.174C204.787 182.288 205.004 182.329 205.214 182.288C205.429 182.221 205.613 182.079 205.731 181.886C205.848 181.694 205.892 181.466 205.854 181.244C205.775 181.034 205.619 180.863 205.418 180.765C205.217 180.668 204.986 180.651 204.773 180.719" fill="white"/>
</g>
<path opacity="0.6" d="M201.245 187.668V185.969L221.603 186.804C221.603 186.804 222.532 187.222 222.43 187.886L201.245 187.668Z" fill="white"/>
<path d="M211.744 181.578C211.744 181.68 211.22 181.721 210.709 182.042C210.199 182.362 209.92 182.798 209.823 182.757C209.725 182.715 209.888 182.121 210.519 181.735C211.15 181.35 211.768 181.48 211.744 181.578Z" fill="#263238"/>
<path d="M213.954 182.52C213.977 182.622 213.527 182.794 213.174 183.225C212.821 183.657 212.71 184.121 212.608 184.117C212.506 184.112 212.445 183.523 212.896 182.993C213.346 182.464 213.954 182.422 213.954 182.52Z" fill="#263238"/>
<path d="M215.17 185.194C215.077 185.194 214.938 184.697 215.212 184.131C215.486 183.564 215.968 183.346 216.01 183.434C216.052 183.523 215.75 183.82 215.546 184.289C215.342 184.757 215.295 185.184 215.17 185.194Z" fill="#263238"/>
<path d="M211.582 179.076C211.536 179.173 211.062 179.025 210.477 179.076C209.893 179.127 209.438 179.289 209.382 179.201C209.326 179.113 209.772 178.737 210.463 178.714C211.155 178.69 211.633 179.001 211.582 179.076Z" fill="#263238"/>
<path opacity="0.3" d="M211.8 172.93L211.712 174.875L201.296 174.671L201.301 172.916L211.8 172.93Z" fill="black"/>
<path d="M211.642 176.876C211.295 176.972 210.927 176.972 210.579 176.876C210.199 176.802 209.828 176.684 209.475 176.523C209.265 176.427 209.062 176.316 208.867 176.193C208.751 176.124 208.645 176.04 208.551 175.943C208.486 175.867 208.446 175.773 208.439 175.673C208.431 175.574 208.456 175.475 208.509 175.39C208.562 175.317 208.632 175.258 208.713 175.217C208.794 175.177 208.883 175.157 208.973 175.158C209.109 175.157 209.244 175.177 209.373 175.219C209.598 175.273 209.817 175.351 210.027 175.451C210.385 175.614 210.714 175.833 211.002 176.101C211.489 176.565 211.652 176.95 211.614 176.973C211.577 176.996 211.331 176.676 210.835 176.295C210.549 176.077 210.237 175.895 209.906 175.752C209.708 175.674 209.505 175.608 209.298 175.557C209.076 175.497 208.881 175.497 208.834 175.595C208.788 175.692 208.834 175.646 208.857 175.715C208.925 175.788 209.003 175.849 209.089 175.896C209.269 176.016 209.455 176.126 209.646 176.226C209.974 176.391 210.316 176.527 210.668 176.63C210.998 176.689 211.324 176.771 211.642 176.876V176.876Z" fill="#263238"/>
<path d="M211.508 177.02C211.307 176.717 211.213 176.356 211.239 175.994C211.223 175.601 211.277 175.208 211.396 174.833C211.465 174.611 211.557 174.396 211.67 174.193C211.729 174.053 211.822 173.931 211.942 173.838C212.061 173.746 212.203 173.686 212.353 173.664C212.448 173.662 212.541 173.69 212.62 173.743C212.699 173.796 212.759 173.872 212.794 173.961C212.848 174.085 212.884 174.216 212.9 174.351C212.938 174.587 212.938 174.829 212.9 175.065C212.838 175.463 212.678 175.839 212.436 176.161C212.018 176.704 211.582 176.825 211.577 176.787C211.573 176.75 211.902 176.541 212.227 176.017C212.413 175.715 212.53 175.376 212.571 175.024C212.598 174.819 212.598 174.611 212.571 174.406C212.538 174.184 212.455 173.998 212.371 174.021C212.288 174.044 212.083 174.188 211.995 174.365C211.888 174.548 211.798 174.741 211.726 174.94C211.606 175.28 211.535 175.634 211.512 175.994C211.457 176.616 211.564 177.006 211.508 177.02Z" fill="#263238"/>
<path d="M191.368 164.148L182.799 170.92C182.799 170.92 186.805 181.907 185.343 183.314L171.613 167.17L184.535 156.062L191.368 164.148Z" fill="#FF725E"/>
<g opacity="0.6">
<path opacity="0.6" d="M179.253 165.332C179.073 165.216 178.858 165.171 178.647 165.205C178.437 165.238 178.246 165.348 178.111 165.513C177.99 165.688 177.94 165.903 177.972 166.113C178.004 166.324 178.115 166.514 178.283 166.645C178.474 166.764 178.702 166.809 178.924 166.772C179.145 166.736 179.347 166.62 179.489 166.446C179.598 166.25 179.627 166.019 179.569 165.803C179.511 165.586 179.371 165.401 179.178 165.285" fill="white"/>
</g>
<path opacity="0.6" d="M171.613 167.166L172.898 166.056L185.621 181.977C185.621 181.977 185.918 182.961 185.343 183.309L171.613 167.166Z" fill="white"/>
<path d="M183.105 171.111C183.022 171.176 182.641 170.809 182.066 170.647C181.49 170.484 180.975 170.549 180.947 170.452C180.919 170.354 181.472 170.08 182.172 170.303C182.873 170.526 183.189 171.064 183.105 171.111Z" fill="#263238"/>
<path d="M183.844 173.399C183.783 173.483 183.379 173.255 182.795 173.269C182.21 173.283 181.815 173.51 181.755 173.427C181.694 173.343 182.094 172.916 182.79 172.912C183.486 172.907 183.918 173.334 183.844 173.399Z" fill="#263238"/>
<path d="M182.637 176.082C182.558 176.026 182.859 175.581 183.463 175.418C184.066 175.256 184.549 175.474 184.512 175.562C184.475 175.65 184.048 175.622 183.556 175.766C183.064 175.91 182.711 176.156 182.637 176.082Z" fill="#263238"/>
<path d="M184.883 169.347C184.786 169.375 184.586 168.925 184.178 168.502C183.769 168.08 183.333 167.857 183.365 167.755C183.398 167.653 183.964 167.755 184.438 168.256C184.911 168.758 184.999 169.333 184.883 169.347Z" fill="#263238"/>
<path opacity="0.3" d="M189.669 165.48L188.142 166.692L181.467 158.694L182.795 157.548L189.669 165.48Z" fill="black"/>
<path d="M186.587 167.95C186.559 167.978 186.243 167.708 185.904 167.137C185.707 166.802 185.551 166.443 185.44 166.07C185.377 165.849 185.327 165.624 185.292 165.397C185.272 165.263 185.272 165.127 185.292 164.993C185.306 164.894 185.351 164.802 185.421 164.731C185.492 164.66 185.583 164.613 185.682 164.598C185.768 164.593 185.855 164.607 185.936 164.64C186.016 164.673 186.088 164.724 186.146 164.789C186.234 164.891 186.308 165.005 186.364 165.128C186.466 165.337 186.552 165.554 186.619 165.777C186.728 166.156 186.776 166.549 186.763 166.942C186.787 167.303 186.699 167.663 186.512 167.973C186.452 167.973 186.545 167.569 186.512 166.942C186.477 166.365 186.318 165.802 186.048 165.29C185.946 165.081 185.826 164.937 185.714 164.956C185.603 164.974 185.658 164.956 185.635 165.049C185.622 165.149 185.622 165.25 185.635 165.35C185.665 165.563 185.705 165.773 185.756 165.982C185.845 166.339 185.968 166.687 186.123 167.021C186.302 167.318 186.457 167.628 186.587 167.95V167.95Z" fill="#263238"/>
<path d="M186.392 167.945C186.359 167.945 186.508 167.527 186.991 167.068C187.278 166.799 187.609 166.581 187.97 166.423C188.185 166.329 188.409 166.258 188.638 166.209C188.782 166.163 188.935 166.154 189.083 166.184C189.231 166.214 189.369 166.282 189.483 166.381C189.543 166.454 189.58 166.542 189.592 166.636C189.603 166.73 189.588 166.825 189.548 166.91C189.488 167.032 189.412 167.144 189.321 167.244C189.164 167.425 188.981 167.582 188.778 167.708C188.437 167.92 188.05 168.046 187.65 168.075C186.963 168.112 186.587 167.866 186.61 167.834C186.945 167.857 187.282 167.857 187.617 167.834C187.968 167.775 188.302 167.642 188.597 167.444C188.77 167.328 188.926 167.189 189.061 167.031C189.209 166.859 189.293 166.678 189.223 166.627C189.148 166.582 189.063 166.555 188.976 166.545C188.889 166.535 188.801 166.544 188.717 166.571C188.51 166.611 188.307 166.669 188.109 166.743C187.777 166.877 187.465 167.055 187.181 167.272C186.661 167.639 186.438 167.978 186.392 167.945Z" fill="#263238"/>
<path d="M215.128 124.601C215.128 124.601 214.562 98.5339 215.128 98.5339C215.695 98.5339 219.714 96.241 219.714 96.241L224.736 134.976C224.736 134.976 225.201 139.325 219.807 142.402C214.413 145.48 190.365 166.859 190.365 166.859L182.214 156.931C182.214 156.931 198.047 140.43 204.494 134.976C209.6 130.728 215.128 124.601 215.128 124.601Z" fill="#263238"/>
<path d="M200.382 118.525L199.829 114.399C199.829 114.399 195.865 106.044 195.299 102.488C194.733 98.9329 195.104 91.2278 195.104 91.2278H220.146C220.146 91.2278 220.039 119.5 217.017 127.433C217.017 127.433 215.486 142.611 215.258 143.883C214.794 146.584 213.109 174.221 213.109 174.221L200.484 173.756C200.484 173.756 199.388 148.348 200.266 141.135C200.697 137.561 200.902 133.755 200.999 130.608C201.118 126.57 200.912 122.53 200.382 118.525V118.525Z" fill="#263238"/>
<path d="M219.463 99.4761C219.459 99.5162 219.459 99.5567 219.463 99.5967C219.463 99.6942 219.463 99.8149 219.44 99.9634C219.44 100.302 219.403 100.776 219.375 101.356C219.329 102.577 219.236 104.345 219.111 106.527C218.86 110.89 218.391 116.91 217.718 123.543C217.045 130.176 216.289 136.168 215.755 140.508C215.49 142.662 215.291 144.412 215.128 145.647C215.059 146.241 215.003 146.705 214.966 147.039C214.966 147.188 214.938 147.308 214.929 147.406C214.919 147.503 214.929 147.531 214.929 147.531C214.944 147.492 214.955 147.452 214.961 147.41L215.017 147.048L215.226 145.656C215.393 144.426 215.634 142.676 215.931 140.527C216.507 136.192 217.273 130.199 217.964 123.562C218.656 116.924 219.092 110.899 219.301 106.531C219.408 104.345 219.468 102.577 219.487 101.356C219.487 100.757 219.487 100.288 219.51 99.9634V99.6014C219.499 99.5581 219.483 99.5161 219.463 99.4761Z" fill="#455A64"/>
<path d="M201.022 132.938C200.986 133.072 200.962 133.208 200.948 133.346C200.911 133.634 200.855 134.029 200.785 134.525C200.66 135.556 200.502 137.046 200.358 138.888C200.061 142.578 199.839 147.707 199.755 153.333C199.671 158.959 199.755 164.097 199.978 167.792C200.071 169.649 200.191 171.134 200.289 172.164C200.345 172.661 200.391 173.056 200.423 173.348C200.433 173.487 200.453 173.625 200.484 173.761C200.496 173.622 200.496 173.482 200.484 173.343C200.461 173.051 200.433 172.656 200.396 172.155C200.326 171.125 200.233 169.63 200.159 167.783C200.006 164.093 199.941 158.963 200.01 153.338C200.08 147.712 200.289 142.588 200.544 138.902C200.665 137.046 200.795 135.565 200.892 134.534C200.943 134.038 200.985 133.643 201.013 133.351C201.027 133.214 201.03 133.075 201.022 132.938V132.938Z" fill="#455A64"/>
<path d="M196.098 38.6565C196.098 38.6565 191.999 39.7473 191.126 45.8557C190.254 51.9641 191.869 53.7094 191.869 53.7094C191.869 53.7094 191.205 42.3373 196.297 40.787L196.098 38.8793" fill="#263238"/>
<path d="M224.022 58.6065L245.178 58.1934L244.932 59.2192L224.124 59.5255L224.022 58.6065Z" fill="#263238"/>
<path d="M198.367 40.5734C199.161 40.3797 199.996 40.4531 200.744 40.7823C202.457 41.5017 205.594 43.5673 205.817 49.4343L206.179 58.8894L192.649 60.6625C192.649 60.6625 191.498 42.4022 198.367 40.5734Z" fill="#FF725E"/>
<path d="M223.27 60.6068L206.096 65.7684L205.84 58.8616L195.564 60.3562L196.139 71.589C196.198 73.192 196.781 74.7313 197.8 75.9701C198.819 77.2089 200.217 78.0784 201.779 78.4447V78.4447C203.575 78.8646 205.463 78.591 207.066 77.6788L225.293 67.314L223.27 60.6068Z" fill="#FFBE9D"/>
<path d="M192.649 60.6624C192.649 60.6624 192.649 60.6021 192.649 60.5C192.649 60.3979 192.649 60.2308 192.672 60.0358C192.672 59.6227 192.704 59.0425 192.732 58.2998C192.779 56.7913 192.848 54.6376 192.932 51.9779C192.974 50.6504 193.015 49.1929 193.057 47.6333C193.057 47.2434 193.08 46.8442 193.094 46.4404C193.094 46.2455 193.131 46.0459 193.155 45.8416C193.178 45.6374 193.224 45.4425 193.28 45.2429C193.622 43.9481 194.369 42.7966 195.412 41.9566C196.455 41.1165 197.739 40.6319 199.077 40.5734C200.038 40.5641 200.981 40.8333 201.793 41.3485C202.631 41.8824 203.346 42.588 203.891 43.4187C204.669 44.6132 205.195 45.9543 205.436 47.3595C205.674 48.7062 205.815 50.0681 205.859 51.4348C205.933 54.0991 206.003 56.6056 206.068 58.8847L206.156 58.7779L196.376 60.1147L193.628 60.5L192.89 60.6392L192.635 60.6857L192.89 60.6392L193.6 60.5603L196.334 60.2261L206.198 58.9914H206.286V58.8986C206.23 56.6149 206.188 54.1131 206.1 51.4441C206.063 50.065 205.925 48.6905 205.687 47.3316C205.441 45.8943 204.903 44.5229 204.104 43.3027C203.541 42.4431 202.8 41.7136 201.932 41.1628C201.082 40.6223 200.094 40.3416 199.087 40.3552C198.144 40.3954 197.221 40.6414 196.383 41.076C195.545 41.5106 194.812 42.1232 194.236 42.871C193.697 43.5575 193.306 44.3475 193.085 45.1918C193.034 45.396 193.001 45.6049 192.96 45.8138C192.918 46.0227 192.918 46.2269 192.899 46.4358C192.899 46.8396 192.899 47.2434 192.872 47.638C192.839 49.2161 192.811 50.6875 192.783 52.029C192.737 54.6933 192.7 56.8516 192.672 58.3602C192.672 59.0889 192.672 59.6645 192.649 60.0683V60.5325C192.644 60.5757 192.644 60.6192 192.649 60.6624Z" fill="#263238"/>
<path d="M222.922 60.8113L227.043 57.7617C227.795 57.2047 228.965 57.2976 229.898 57.2372C231.755 57.0701 234.786 58.1656 234.902 58.3791L233.658 59.3724L241.669 59.1264C241.394 59.6716 240.977 60.1322 240.461 60.4591C239.945 60.786 239.351 60.9671 238.74 60.9831C238.74 60.9831 238.485 62.7933 236.16 63.1368C236.16 63.1368 235.556 64.6035 234.261 65.0306C234.261 65.0306 234.006 66.6691 231.94 66.5809L224.917 67.3653L222.922 60.8113Z" fill="#FFBE9D"/>
<path d="M233.737 61.2659C234.582 61.3395 235.432 61.3302 236.276 61.238C237.123 61.2322 237.967 61.142 238.796 60.9688C237.952 60.9006 237.104 60.91 236.262 60.9967C235.414 61.0087 234.568 61.0988 233.737 61.2659Z" fill="#F05A22"/>
<path d="M231.704 63.1971C232.437 63.3162 233.181 63.3567 233.922 63.3178C234.664 63.3567 235.408 63.3162 236.141 63.1971C235.408 63.0752 234.664 63.0348 233.922 63.0764C233.181 63.0348 232.437 63.0752 231.704 63.1971V63.1971Z" fill="#F05A22"/>
<path d="M229.527 65.0167C230.26 65.1385 231.004 65.179 231.745 65.1373C232.486 65.1791 233.228 65.1387 233.959 65.0167C233.228 64.8974 232.486 64.8569 231.745 64.896C231.004 64.8571 230.26 64.8975 229.527 65.0167V65.0167Z" fill="#F05A22"/>
<path d="M204.958 69.273C205.297 68.7538 205.554 68.1855 205.72 67.5881C205.968 67.0193 206.125 66.4145 206.184 65.7964C205.901 66.3425 205.675 66.9165 205.511 67.5092C205.265 68.0758 205.079 68.6671 204.958 69.273V69.273Z" fill="#F05A22"/>
<path d="M203.738 68.6045C204.215 68.1625 204.648 67.676 205.033 67.1516C205.48 66.6815 205.879 66.1684 206.226 65.6199C205.693 66.0099 205.223 66.4795 204.833 67.0124C204.392 67.4867 204.023 68.0231 203.738 68.6045Z" fill="#F05A22"/>
</svg>
